<svg xmlns="http://www.w3.org/2000/svg" xmlns:xlink="http://www.w3.org/1999/xlink" width="125" height="119" viewBox="0 0 125 119"><defs><filter id="a" x="11" y="3" width="68" height="68" filterUnits="userSpaceOnUse"><feOffset dy="3" input="SourceAlpha"/><feGaussianBlur stdDeviation="3" result="b"/><feFlood flood-opacity="0.161"/><feComposite operator="in" in2="b"/><feComposite in="SourceGraphic"/></filter><filter id="c" x="57" y="55" width="66" height="64" filterUnits="userSpaceOnUse"><feOffset dy="3" input="SourceAlpha"/><feGaussianBlur stdDeviation="3" result="d"/><feFlood flood-opacity="0.161"/><feComposite operator="in" in2="d"/><feComposite in="SourceGraphic"/></filter><filter id="e" x="0" y="70" width="43" height="43" filterUnits="userSpaceOnUse"><feOffset dy="3" input="SourceAlpha"/><feGaussianBlur stdDeviation="3" result="f"/><feFlood flood-opacity="0.161"/><feComposite operator="in" in2="f"/><feComposite in="SourceGraphic"/></filter><filter id="g" x="8" y="0" width="43" height="43" filterUnits="userSpaceOnUse"><feOffset dy="3" input="SourceAlpha"/><feGaussianBlur stdDeviation="3" result="h"/><feFlood flood-opacity="0.161"/><feComposite operator="in" in2="h"/><feComposite in="SourceGraphic"/></filter><filter id="i" x="74" y="72" width="43" height="43" filterUnits="userSpaceOnUse"><feOffset dy="3" input="SourceAlpha"/><feGaussianBlur stdDeviation="3" result="j"/><feFlood flood-opacity="0.161"/><feComposite operator="in" in2="j"/><feComposite in="SourceGraphic"/></filter><filter id="k" x="82" y="5" width="43" height="43" filterUnits="userSpaceOnUse"><feOffset dy="3" input="SourceAlpha"/><feGaussianBlur stdDeviation="3" result="l"/><feFlood flood-opacity="0.161"/><feComposite operator="in" in2="l"/><feComposite in="SourceGraphic"/></filter><filter id="m" x="37" y="8" width="75" height="107" filterUnits="userSpaceOnUse"><feOffset dy="3" input="SourceAlpha"/><feGaussianBlur stdDeviation="3" result="n"/><feFlood flood-opacity="0.161"/><feComposite operator="in" in2="n"/><feComposite in="SourceGraphic"/></filter><filter id="o" x="35.468" y="26.595" width="31.535" height="30.111" filterUnits="userSpaceOnUse"><feOffset dy="3" input="SourceAlpha"/><feGaussianBlur stdDeviation="3" result="p"/><feFlood flood-opacity="0.161"/><feComposite operator="in" in2="p"/><feComposite in="SourceGraphic"/></filter><filter id="q" x="31.468" y="47.595" width="31.462" height="30.111" filterUnits="userSpaceOnUse"><feOffset dy="3" input="SourceAlpha"/><feGaussianBlur stdDeviation="3" result="r"/><feFlood flood-opacity="0.161"/><feComposite operator="in" in2="r"/><feComposite in="SourceGraphic"/></filter></defs><g transform="translate(-1581 94)"><rect width="96" height="83" transform="translate(1594 -80)" fill="#4caf50"/><g transform="matrix(1, 0, 0, 1, 1581, -94)" filter="url(#a)"><rect width="50" height="50" transform="translate(20 9)" fill="#80e27e"/></g><g transform="matrix(1, 0, 0, 1, 1581, -94)" filter="url(#c)"><rect width="48" height="46" transform="translate(66 61)" fill="#087f23"/></g><g transform="matrix(1, 0, 0, 1, 1581, -94)" filter="url(#e)"><rect width="25" height="25" transform="translate(9 76)" fill="#b53d00"/></g><g transform="matrix(1, 0, 0, 1, 1581, -94)" filter="url(#g)"><rect width="25" height="25" transform="translate(17 6)" fill="#00b8d4"/></g><g transform="matrix(1, 0, 0, 1, 1581, -94)" filter="url(#i)"><rect width="25" height="25" transform="translate(83 78)" fill="#ffb74d"/></g><g transform="matrix(1, 0, 0, 1, 1581, -94)" filter="url(#k)"><rect width="25" height="25" transform="translate(91 11)" fill="#ff9100"/></g><g transform="matrix(1, 0, 0, 1, 1581, -94)" filter="url(#m)"><text transform="translate(46 86)" fill="#fff" font-size="75" font-family="Helvetica-BoldOblique, Helvetica" font-weight="700" font-style="oblique"><tspan x="0" y="0">P</tspan></text></g><g transform="matrix(1, 0, 0, 1, 1581, -94)" filter="url(#o)"><path d="M1654.867-163.4l-2.506,12.111h-11.029l2.256-12.111Z" transform="translate(-1596.86 196)" fill="#fff"/></g><g transform="matrix(1, 0, 0, 1, 1581, -94)" filter="url(#q)"><path d="M1654.794-163.4l-2.493,12.111h-10.969l2.244-12.111Z" transform="translate(-1600.86 217)" fill="#fff"/></g><path d="M1675.811-163.4l-6.385,12.111h-28.094l5.746-12.111Z" transform="translate(-41.245 123)" fill="#fff"/><path d="M1656.43-163.4l-2.8,12.111h-12.3l2.516-12.111Z" transform="translate(-38.864 123)" fill="#fff"/><path d="M1656.43-163.4l-2.8,12.111h-12.3l2.516-12.111Z" transform="translate(-41.864 123)" fill="#fff"/><path d="M1656.43-163.4l-2.8,12.111h-12.3l2.516-12.111Z" transform="translate(-25.864 102)" fill="#fff"/></g></svg>