<svg xmlns="http://www.w3.org/2000/svg" xmlns:xlink="http://www.w3.org/1999/xlink" width="125" height="119" viewBox="0 0 125 119">
  <defs>
    <filter id="Rectangle_16" x="11" y="3" width="68" height="68" filterUnits="userSpaceOnUse">
      <feOffset dy="3" input="SourceAlpha"/>
      <feGaussianBlur stdDeviation="3" result="blur"/>
      <feFlood flood-opacity="0.161"/>
      <feComposite operator="in" in2="blur"/>
      <feComposite in="SourceGraphic"/>
    </filter>
    <filter id="Rectangle_17" x="57" y="55" width="66" height="64" filterUnits="userSpaceOnUse">
      <feOffset dy="3" input="SourceAlpha"/>
      <feGaussianBlur stdDeviation="3" result="blur-2"/>
      <feFlood flood-opacity="0.161"/>
      <feComposite operator="in" in2="blur-2"/>
      <feComposite in="SourceGraphic"/>
    </filter>
    <filter id="Rectangle_18" x="0" y="70" width="43" height="43" filterUnits="userSpaceOnUse">
      <feOffset dy="3" input="SourceAlpha"/>
      <feGaussianBlur stdDeviation="3" result="blur-3"/>
      <feFlood flood-opacity="0.161"/>
      <feComposite operator="in" in2="blur-3"/>
      <feComposite in="SourceGraphic"/>
    </filter>
    <filter id="Rectangle_19" x="8" y="0" width="43" height="43" filterUnits="userSpaceOnUse">
      <feOffset dy="3" input="SourceAlpha"/>
      <feGaussianBlur stdDeviation="3" result="blur-4"/>
      <feFlood flood-opacity="0.161"/>
      <feComposite operator="in" in2="blur-4"/>
      <feComposite in="SourceGraphic"/>
    </filter>
    <filter id="Rectangle_20" x="74" y="72" width="43" height="43" filterUnits="userSpaceOnUse">
      <feOffset dy="3" input="SourceAlpha"/>
      <feGaussianBlur stdDeviation="3" result="blur-5"/>
      <feFlood flood-opacity="0.161"/>
      <feComposite operator="in" in2="blur-5"/>
      <feComposite in="SourceGraphic"/>
    </filter>
    <filter id="Rectangle_21" x="82" y="5" width="43" height="43" filterUnits="userSpaceOnUse">
      <feOffset dy="3" input="SourceAlpha"/>
      <feGaussianBlur stdDeviation="3" result="blur-6"/>
      <feFlood flood-opacity="0.161"/>
      <feComposite operator="in" in2="blur-6"/>
      <feComposite in="SourceGraphic"/>
    </filter>
    <filter id="P" x="37" y="8" width="75" height="107" filterUnits="userSpaceOnUse">
      <feOffset dy="3" input="SourceAlpha"/>
      <feGaussianBlur stdDeviation="3" result="blur-7"/>
      <feFlood flood-opacity="0.161"/>
      <feComposite operator="in" in2="blur-7"/>
      <feComposite in="SourceGraphic"/>
    </filter>
    <filter id="Path_10" x="35.468" y="26.595" width="31.535" height="30.111" filterUnits="userSpaceOnUse">
      <feOffset dy="3" input="SourceAlpha"/>
      <feGaussianBlur stdDeviation="3" result="blur-8"/>
      <feFlood flood-opacity="0.161"/>
      <feComposite operator="in" in2="blur-8"/>
      <feComposite in="SourceGraphic"/>
    </filter>
    <filter id="Path_11" x="31.468" y="47.595" width="31.462" height="30.111" filterUnits="userSpaceOnUse">
      <feOffset dy="3" input="SourceAlpha"/>
      <feGaussianBlur stdDeviation="3" result="blur-9"/>
      <feFlood flood-opacity="0.161"/>
      <feComposite operator="in" in2="blur-9"/>
      <feComposite in="SourceGraphic"/>
    </filter>
  </defs>
  <g id="Group_9" data-name="Group 9" transform="translate(-1581 94)">
    <rect id="Rectangle_15" data-name="Rectangle 15" width="96" height="83" transform="translate(1594 -80)" fill="#4caf50"/>
    <g transform="matrix(1, 0, 0, 1, 1581, -94)" filter="url(#Rectangle_16)">
      <rect id="Rectangle_16-2" data-name="Rectangle 16" width="50" height="50" transform="translate(20 9)" fill="#80e27e"/>
    </g>
    <g transform="matrix(1, 0, 0, 1, 1581, -94)" filter="url(#Rectangle_17)">
      <rect id="Rectangle_17-2" data-name="Rectangle 17" width="48" height="46" transform="translate(66 61)" fill="#087f23"/>
    </g>
    <g transform="matrix(1, 0, 0, 1, 1581, -94)" filter="url(#Rectangle_18)">
      <rect id="Rectangle_18-2" data-name="Rectangle 18" width="25" height="25" transform="translate(9 76)" fill="#b53d00"/>
    </g>
    <g transform="matrix(1, 0, 0, 1, 1581, -94)" filter="url(#Rectangle_19)">
      <rect id="Rectangle_19-2" data-name="Rectangle 19" width="25" height="25" transform="translate(17 6)" fill="#00b8d4"/>
    </g>
    <g transform="matrix(1, 0, 0, 1, 1581, -94)" filter="url(#Rectangle_20)">
      <rect id="Rectangle_20-2" data-name="Rectangle 20" width="25" height="25" transform="translate(83 78)" fill="#ffb74d"/>
    </g>
    <g transform="matrix(1, 0, 0, 1, 1581, -94)" filter="url(#Rectangle_21)">
      <rect id="Rectangle_21-2" data-name="Rectangle 21" width="25" height="25" transform="translate(91 11)" fill="#ff9100"/>
    </g>
    <g transform="matrix(1, 0, 0, 1, 1581, -94)" filter="url(#P)">
      <text id="P-2" data-name="P" transform="translate(46 86)" fill="#fff" font-size="75" font-family="Helvetica-BoldOblique, Helvetica" font-weight="700" font-style="oblique"><tspan x="0" y="0">P</tspan></text>
    </g>
    <g transform="matrix(1, 0, 0, 1, 1581, -94)" filter="url(#Path_10)">
      <path id="Path_10-2" data-name="Path 10" d="M1654.867-163.4l-2.506,12.111h-11.029l2.256-12.111Z" transform="translate(-1596.86 196)" fill="#fff"/>
    </g>
    <g transform="matrix(1, 0, 0, 1, 1581, -94)" filter="url(#Path_11)">
      <path id="Path_11-2" data-name="Path 11" d="M1654.794-163.4l-2.493,12.111h-10.969l2.244-12.111Z" transform="translate(-1600.86 217)" fill="#fff"/>
    </g>
    <path id="Path_12" data-name="Path 12" d="M1675.811-163.4l-6.385,12.111h-28.094l5.746-12.111Z" transform="translate(-41.245 123)" fill="#fff"/>
    <path id="Path_13" data-name="Path 13" d="M1656.43-163.4l-2.8,12.111h-12.3l2.516-12.111Z" transform="translate(-38.864 123)" fill="#fff"/>
    <path id="Path_14" data-name="Path 14" d="M1656.43-163.4l-2.8,12.111h-12.3l2.516-12.111Z" transform="translate(-41.864 123)" fill="#fff"/>
    <path id="Path_15" data-name="Path 15" d="M1656.43-163.4l-2.8,12.111h-12.3l2.516-12.111Z" transform="translate(-25.864 102)" fill="#fff"/>
  </g>
</svg>
