<svg xmlns="http://www.w3.org/2000/svg" xmlns:xlink="http://www.w3.org/1999/xlink" width="46.01" height="31.946" viewBox="0 0 46.01 31.946"><defs><clipPath id="a"><circle cx="6.5" cy="6.5" r="6.5" transform="translate(-5733 -4421)" fill="#de5448"/></clipPath><clipPath id="b"><rect width="26" height="19" transform="translate(-5762 -4425)" fill="#159f5c"/></clipPath><clipPath id="c"><rect width="6" height="20" transform="translate(-5741.066 -4398.409) rotate(34)" fill="#ffcd44"/></clipPath><filter id="d" x="0" y="1.149" width="27.755" height="30.797" filterUnits="userSpaceOnUse"><feOffset dy="3" input="SourceAlpha"/><feGaussianBlur stdDeviation="3" result="e"/><feFlood flood-opacity="0.161"/><feComposite operator="in" in2="e"/><feComposite in="SourceGraphic"/></filter></defs><g transform="translate(5869.01 4426.409)"><path d="M18.975,15a9,9,0,1,0,0,6H25.5v6h6V21h3V15ZM10.5,21a3,3,0,1,1,3-3A3.009,3.009,0,0,1,10.5,21Z" transform="translate(-5865.5 -4430)" fill="#fff" stroke="#dbdbdb" stroke-width="0.2"/><path d="M-5774.985-4387c6,5.875,5.859,11.719,5.859,11.719h-5.859Z" transform="translate(-64.953 -27.813)" fill="#4285f4" stroke="#4285f4" stroke-width="0.15"/><g transform="translate(-103 -1)" clip-path="url(#a)"><path d="M18.975,15a9,9,0,1,0,0,6H25.5v6h6V21h3V15ZM10.5,21a3,3,0,1,1,3-3A3.009,3.009,0,0,1,10.5,21Z" transform="translate(-5762.5 -4429)" fill="#de5448"/></g><g transform="translate(-104 3)" clip-path="url(#b)"><path d="M18.975,15a9,9,0,1,0,0,6H25.5v6h6V21h3V15ZM10.5,21a3,3,0,1,1,3-3A3.009,3.009,0,0,1,10.5,21Z" transform="translate(-5761.5 -4433)" fill="#159f5c"/></g><g transform="translate(-116 -28)" clip-path="url(#c)"><path d="M18.975,15a9,9,0,1,0,0,6H25.5v6h6V21h3V15ZM10.5,21a3,3,0,1,1,3-3A3.009,3.009,0,0,1,10.5,21Z" transform="translate(-5749.5 -4402)" fill="#ffcd44"/></g><ellipse cx="4" cy="3" rx="4" ry="3" transform="translate(-5859 -4415)" fill="#159f5c"/><g transform="matrix(1, 0, 0, 1, -5869.01, -4426.41)" filter="url(#d)"><path d="M14.518,5.759H13.91V4.542a3.042,3.042,0,0,0-6.084,0V5.759H7.217A1.22,1.22,0,0,0,6,6.976V13.06a1.22,1.22,0,0,0,1.217,1.217h7.3a1.22,1.22,0,0,0,1.217-1.217V6.976A1.22,1.22,0,0,0,14.518,5.759Zm-3.651,5.476a1.217,1.217,0,1,1,1.217-1.217A1.22,1.22,0,0,1,10.868,11.235Zm1.886-5.476H8.981V4.542a1.886,1.886,0,0,1,3.772,0Z" transform="translate(3.01 5.66)" fill="#fff" stroke="#fff" stroke-width="0.02"/></g></g></svg>