<svg xmlns="http://www.w3.org/2000/svg" xmlns:xlink="http://www.w3.org/1999/xlink" width="70.153" height="34.836" viewBox="0 0 70.153 34.836"><defs><linearGradient id="a" x1="0.5" x2="0.5" y2="1" gradientUnits="objectBoundingBox"><stop offset="0" stop-color="#c1355c"/><stop offset="1" stop-color="#fad53e"/></linearGradient><linearGradient id="b" x1="0.5" x2="0.5" y2="1" gradientUnits="objectBoundingBox"><stop offset="0" stop-color="#c1355c"/><stop offset="1" stop-color="#2b7efc"/></linearGradient><linearGradient id="c" x1="0.5" x2="0.5" y2="1" gradientUnits="objectBoundingBox"><stop offset="0" stop-color="#1de4b9"/><stop offset="1" stop-color="#2b7efc"/></linearGradient><linearGradient id="d" x1="0.5" x2="0.5" y2="0.748" gradientUnits="objectBoundingBox"><stop offset="0" stop-color="#4d5ea8"/><stop offset="1" stop-color="#2a87f6"/></linearGradient><linearGradient id="e" x1="0.5" x2="0.5" y2="1" gradientUnits="objectBoundingBox"><stop offset="0" stop-color="#1de9b6"/><stop offset="1" stop-color="#2c7bff"/><stop offset="1" stop-color="#5b5a5a"/></linearGradient></defs><g transform="translate(-373.847 -123)"><rect width="3.804" height="27.307" rx="1.902" transform="translate(388.796 126.804) rotate(-90)" fill="url(#a)"/><rect width="4.004" height="31.1" rx="2.002" transform="translate(376.659 133.811) rotate(-90)" fill="url(#b)"/><rect width="4.004" height="22.756" rx="2.002" transform="translate(376.935 141.82) rotate(-90)" fill="url(#c)"/><rect width="4.004" height="24.273" rx="2.002" transform="translate(373.847 149.777) rotate(-90)" fill="#16a085"/><rect width="4.004" height="32.617" rx="2.002" transform="translate(383.486 157.836) rotate(-90)" fill="url(#d)"/><path d="M5.532,31.7a11.895,11.895,0,0,1,9.192-11.55A14.181,14.181,0,0,1,19.8,12.044a14.406,14.406,0,0,1,17.926-.1,13.92,13.92,0,0,1,5.053,7.916h.794a11.97,11.97,0,0,1,5.991,1.564,11.515,11.515,0,0,1,4.355,4.307A11.682,11.682,0,0,1,55.532,31.7a11.9,11.9,0,0,1-5.679,10.226,11.667,11.667,0,0,1-5.8,1.732H17.082A11.72,11.72,0,0,1,8.9,39.98,11.426,11.426,0,0,1,5.532,31.7Zm4.115,0a7.677,7.677,0,0,0,2.166,5.438,7.579,7.579,0,0,0,5.269,2.478H44.006a7.482,7.482,0,0,0,5.269-2.478,7.639,7.639,0,0,0,2.19-5.438,7.4,7.4,0,0,0-2.358-5.462,7.67,7.67,0,0,0-5.582-2.31h-3.85c-.265,0-.409-.144-.409-.433L39.1,22.126a9.841,9.841,0,0,0-3.369-6.545,10.028,10.028,0,0,0-6.882-2.647,9.884,9.884,0,0,0-6.858,2.647,9.755,9.755,0,0,0-3.3,6.545L18.5,23.5c0,.289-.168.433-.481.433H16.745a7.923,7.923,0,0,0-5.053,2.575A7.454,7.454,0,0,0,9.647,31.7Z" transform="translate(388.468 114.132)" fill="url(#e)"/></g></svg>