<svg width="1521" height="854" viewBox="0 0 1521 854" xmlns="http://www.w3.org/2000/svg" xmlns:xlink="http://www.w3.org/1999/xlink"><title>about_fallback_3</title><defs><path id="a" d="M47.023 8.17H.953V.712h46.07v7.456z"/><path id="c" d="M.047.876h54.456v61.667H.047V.876z"/><path id="e" d="M54.47 13.37H.015V.701h54.457v12.67z"/><path id="g" d="M.787.876h37.688v56.01H.787V.876z"/><path id="i" d="M16.22.735v62.81H.077V.734H16.22z"/><path id="k" d="M16.22.735v62.81H.077V.734H16.22z"/><path id="m" d="M.903.876h29.302v50.798H.903V.876z"/><path id="o" d="M6.84.645v62.81H.105V.645h6.733z"/><path id="q" d="M.006.876h12.527v41.425H.006V.876z"/><path id="s" d="M5.802.564v62.81H.125V.563h5.677z"/><path id="u" d="M.095.876h12.526v36.211H.095V.877z"/><path id="w" d="M.733.876h29.3v30.556H.734V.876z"/><path id="y" d="M62.861 42.523H.02V.493H62.86v42.03z"/><path id="A" d="M55.191 51.898H.735V.02H55.19v51.878z"/><path id="C" d="M.59 38.637V.969h3.418v37.668H.589z"/><path id="E" d="M46.92 57.1H.85V.007h46.07V57.1z"/><path id="G" d="M.59 30.194V.908h8.633v29.286H.59z"/><path id="I" d="M.59 30.112V.824h9.69v29.288H.59z"/><path id="K" d="M.59 21.665V.766h14.906v20.899H.589z"/><path id="M" d="M21.191.876H.277V.112h20.914v.764z"/><path id="O" d="M29.64 6.087H.34V.1h29.3v5.986z"/></defs><g fill="none" fill-rule="evenodd"><path fill="#F9BB02" d="M0 923h1578V0H0z"/><path d="M481.345 67.237a4.151 4.151 0 0 1-2.946-1.22L423.89 11.54a4.162 4.162 0 0 1 0-5.89 4.168 4.168 0 0 1 5.892 0l54.509 54.48a4.162 4.162 0 0 1 0 5.888 4.148 4.148 0 0 1-2.946 1.22M553.76 143.806c-1.183 0-2.358-.5-3.183-1.474l-46.123-54.48a4.163 4.163 0 0 1 .49-5.868 4.163 4.163 0 0 1 5.873.487l46.123 54.48a4.163 4.163 0 0 1-.49 5.868 4.14 4.14 0 0 1-2.69.987M626.177 220.374a4.165 4.165 0 0 1-3.429-1.793l-37.737-54.48a4.166 4.166 0 1 1 6.852-4.744l37.738 54.48a4.168 4.168 0 0 1-3.424 6.537M698.591 296.94a4.166 4.166 0 0 1-3.673-2.19l-29.351-54.48a4.162 4.162 0 0 1 1.694-5.642 4.17 4.17 0 0 1 5.644 1.693l29.351 54.48a4.162 4.162 0 0 1-3.665 6.14M771.002 373.51a4.166 4.166 0 0 1-3.89-2.672l-20.966-54.48a4.162 4.162 0 0 1 2.394-5.381 4.163 4.163 0 0 1 5.386 2.39l20.964 54.48a4.159 4.159 0 0 1-2.394 5.382c-.492.19-.996.28-1.494.28M843.412 450.075a4.168 4.168 0 0 1-4.057-3.228l-12.578-54.48a4.163 4.163 0 0 1 3.124-4.996 4.17 4.17 0 0 1 4.996 3.122l12.58 54.48a4.167 4.167 0 0 1-4.065 5.102M915.825 526.642a4.166 4.166 0 0 1-4.15-3.846l-4.194-54.48a4.166 4.166 0 0 1 3.836-4.472 4.159 4.159 0 0 1 4.473 3.834l4.194 54.48a4.164 4.164 0 0 1-4.159 4.484M988.247 603.209a4.164 4.164 0 0 1-4.159-4.483l4.194-54.481c.175-2.293 2.178-3.998 4.474-3.834a4.166 4.166 0 0 1 3.835 4.471l-4.194 54.48a4.166 4.166 0 0 1-4.15 3.847M1060.662 679.776a4.167 4.167 0 0 1-4.065-5.102l12.58-54.48c.516-2.241 2.756-3.626 4.996-3.122a4.163 4.163 0 0 1 3.123 4.996l-12.578 54.48a4.168 4.168 0 0 1-4.056 3.228M1133.07 756.345a4.145 4.145 0 0 1-1.493-.281 4.16 4.16 0 0 1-2.394-5.381l20.965-54.48a4.16 4.16 0 0 1 5.384-2.391 4.16 4.16 0 0 1 2.394 5.38l-20.966 54.481a4.166 4.166 0 0 1-3.89 2.672M1205.482 832.91a4.163 4.163 0 0 1-3.665-6.139l29.352-54.48a4.161 4.161 0 0 1 5.644-1.693 4.164 4.164 0 0 1 1.691 5.64l-29.349 54.481a4.166 4.166 0 0 1-3.673 2.19" fill="#4286F6"/><g transform="translate(1272.78 845.953)"><mask id="b" fill="#fff"><use xlink:href="#a"/></mask><path d="M5.115 63.524a4.168 4.168 0 0 1-3.423-6.536L39.429 2.506a4.166 4.166 0 1 1 6.852 4.744L8.545 61.73a4.165 4.165 0 0 1-3.429 1.793" fill="#4286F6" mask="url(#b)"/></g><path d="M481.345 67.237a4.151 4.151 0 0 1-2.946-1.22L423.89 11.54a4.162 4.162 0 0 1 0-5.89 4.168 4.168 0 0 1 5.892 0l54.509 54.48a4.162 4.162 0 0 1 0 5.888 4.148 4.148 0 0 1-2.946 1.22" fill="#4286F6"/><g transform="translate(585.246 -.518)"><mask id="d" fill="#fff"><use xlink:href="#c"/></mask><path d="M50.339 62.543c-1.184 0-2.359-.5-3.184-1.474L1.032 6.589A4.163 4.163 0 0 1 1.522.72a4.161 4.161 0 0 1 5.873.488l46.123 54.48a4.163 4.163 0 0 1-.49 5.868 4.14 4.14 0 0 1-2.69.987" fill="#4286F6" mask="url(#d)"/></g><path d="M708 138.592a4.165 4.165 0 0 1-3.429-1.792l-37.737-54.48a4.166 4.166 0 1 1 6.852-4.745l37.737 54.481a4.168 4.168 0 0 1-3.423 6.536M780.414 215.16a4.169 4.169 0 0 1-3.673-2.191l-29.35-54.48a4.164 4.164 0 0 1 1.692-5.642 4.17 4.17 0 0 1 5.644 1.693l29.352 54.48a4.162 4.162 0 0 1-3.665 6.14M852.826 291.729a4.166 4.166 0 0 1-3.89-2.672l-20.966-54.48a4.16 4.16 0 0 1 2.394-5.381 4.164 4.164 0 0 1 5.384 2.39l20.966 54.48a4.16 4.16 0 0 1-2.394 5.382c-.492.19-.996.28-1.494.28M925.234 368.294a4.168 4.168 0 0 1-4.056-3.228l-12.578-54.48a4.163 4.163 0 0 1 3.123-4.996c2.244-.508 4.48.88 4.996 3.121l12.58 54.48a4.167 4.167 0 0 1-4.065 5.103M997.648 444.86a4.166 4.166 0 0 1-4.15-3.845l-4.192-54.48a4.164 4.164 0 0 1 3.833-4.472 4.165 4.165 0 0 1 4.476 3.834l4.191 54.48a4.164 4.164 0 0 1-4.158 4.484M1070.07 521.428a4.164 4.164 0 0 1-4.159-4.483l4.195-54.481a4.157 4.157 0 0 1 4.473-3.834 4.166 4.166 0 0 1 3.836 4.471l-4.194 54.48a4.166 4.166 0 0 1-4.15 3.847M1142.484 597.995a4.167 4.167 0 0 1-4.065-5.102l12.58-54.48c.517-2.241 2.757-3.626 4.997-3.122a4.163 4.163 0 0 1 3.123 4.996l-12.578 54.48a4.168 4.168 0 0 1-4.057 3.228M1214.894 674.564a4.1 4.1 0 0 1-1.494-.281 4.159 4.159 0 0 1-2.394-5.381l20.964-54.48c.827-2.148 3.238-3.23 5.386-2.391a4.162 4.162 0 0 1 2.394 5.38l-20.966 54.481a4.166 4.166 0 0 1-3.89 2.672M1287.305 751.129a4.162 4.162 0 0 1-3.665-6.139l29.352-54.48a4.163 4.163 0 0 1 5.644-1.693 4.162 4.162 0 0 1 1.693 5.64l-29.351 54.481a4.166 4.166 0 0 1-3.673 2.19M1359.719 827.696a4.168 4.168 0 0 1-3.423-6.536l37.737-54.481a4.166 4.166 0 1 1 6.852 4.744l-37.737 54.48a4.165 4.165 0 0 1-3.43 1.793" fill="#4286F6"/><g transform="translate(1427.957 840.752)"><mask id="f" fill="#fff"><use xlink:href="#e"/></mask><path d="M4.179 63.511a4.14 4.14 0 0 1-2.69-.987A4.163 4.163 0 0 1 1 56.656l46.124-54.48a4.167 4.167 0 0 1 5.873-.488 4.163 4.163 0 0 1 .49 5.868L7.361 62.037c-.825.975-2 1.474-3.183 1.474" fill="#4286F6" mask="url(#f)"/></g><g transform="translate(750.875 -.518)"><mask id="h" fill="#fff"><use xlink:href="#g"/></mask><path d="M34.311 56.886a4.166 4.166 0 0 1-3.673-2.19L1.287.214A4.162 4.162 0 0 1 2.98-5.426a4.17 4.17 0 0 1 5.644 1.693l29.351 54.48a4.162 4.162 0 0 1-3.665 6.139" fill="#4286F6" mask="url(#h)"/></g><path d="M857.597 132.937a4.166 4.166 0 0 1-3.89-2.671l-20.966-54.48a4.162 4.162 0 0 1 2.394-5.382 4.164 4.164 0 0 1 5.386 2.39l20.964 54.481a4.159 4.159 0 0 1-2.394 5.381c-.492.19-.996.281-1.494.281M930.007 209.502a4.168 4.168 0 0 1-4.057-3.227l-12.578-54.48a4.163 4.163 0 0 1 3.124-4.996c2.24-.504 4.479.88 4.996 3.121l12.58 54.48a4.167 4.167 0 0 1-4.065 5.102M1002.42 286.07a4.166 4.166 0 0 1-4.15-3.847l-4.194-54.48a4.166 4.166 0 0 1 3.835-4.471c2.313-.158 4.299 1.54 4.474 3.833l4.194 54.481a4.164 4.164 0 0 1-4.159 4.483M1074.842 362.636a4.164 4.164 0 0 1-4.159-4.483l4.194-54.48a4.165 4.165 0 0 1 4.473-3.834 4.166 4.166 0 0 1 3.836 4.47l-4.194 54.481a4.166 4.166 0 0 1-4.15 3.846M1147.257 439.203a4.167 4.167 0 0 1-4.065-5.102l12.58-54.48c.516-2.24 2.752-3.627 4.996-3.121a4.163 4.163 0 0 1 3.123 4.995l-12.578 54.48a4.168 4.168 0 0 1-4.056 3.228M1219.665 515.773a4.1 4.1 0 0 1-1.493-.282 4.159 4.159 0 0 1-2.394-5.38l20.963-54.48c.827-2.148 3.24-3.229 5.386-2.391a4.162 4.162 0 0 1 2.394 5.38l-20.966 54.48a4.166 4.166 0 0 1-3.89 2.673M1292.076 592.337a4.162 4.162 0 0 1-3.665-6.139l29.352-54.48a4.163 4.163 0 0 1 5.644-1.693 4.162 4.162 0 0 1 1.694 5.641l-29.352 54.48a4.166 4.166 0 0 1-3.673 2.191M1364.49 668.905a4.168 4.168 0 0 1-3.423-6.536l37.738-54.481a4.166 4.166 0 1 1 6.852 4.744l-37.737 54.48a4.165 4.165 0 0 1-3.43 1.793M1436.907 745.472a4.14 4.14 0 0 1-2.69-.987 4.163 4.163 0 0 1-.49-5.869l46.123-54.48a4.167 4.167 0 0 1 5.874-.487 4.163 4.163 0 0 1 .49 5.868l-46.124 54.48c-.825.975-2 1.475-3.183 1.475" fill="#4286F6"/><g transform="translate(1505.08 758.494)"><mask id="j" fill="#fff"><use xlink:href="#i"/></mask><path d="M4.244 63.544a4.162 4.162 0 0 1-2.946-7.11l54.509-54.48a4.168 4.168 0 0 1 5.892 0 4.162 4.162 0 0 1 0 5.89l-54.51 54.48a4.148 4.148 0 0 1-2.945 1.22" fill="#4286F6" mask="url(#j)"/></g><g transform="translate(1505.08 758.494)"><mask id="l" fill="#fff"><use xlink:href="#k"/></mask><path d="M4.244 63.544a4.162 4.162 0 0 1-2.946-7.11l54.509-54.48a4.168 4.168 0 0 1 5.892 0 4.162 4.162 0 0 1 0 5.89l-54.51 54.48a4.148 4.148 0 0 1-2.945 1.22" fill="#4286F6" mask="url(#l)"/></g><g transform="translate(913.383 -.518)"><mask id="n" fill="#fff"><use xlink:href="#m"/></mask><path d="M26.038 51.674a4.166 4.166 0 0 1-3.89-2.672L1.182-5.478a4.16 4.16 0 0 1 2.394-5.381 4.162 4.162 0 0 1 5.384 2.39l20.965 54.481a4.16 4.16 0 0 1-2.394 5.38c-.491.19-.995.282-1.493.282" fill="#4286F6" mask="url(#n)"/></g><path d="M1011.83 127.721a4.168 4.168 0 0 1-4.057-3.227l-12.578-54.481a4.163 4.163 0 0 1 3.123-4.996c2.24-.503 4.48.881 4.996 3.122l12.58 54.48a4.167 4.167 0 0 1-4.065 5.102M1084.243 204.288a4.166 4.166 0 0 1-4.15-3.846l-4.192-54.48a4.164 4.164 0 0 1 3.833-4.471c2.298-.165 4.298 1.54 4.475 3.834l4.192 54.48a4.164 4.164 0 0 1-4.158 4.483M1156.666 280.855a4.164 4.164 0 0 1-4.159-4.483l4.192-54.48c.177-2.293 2.163-3.994 4.475-3.834a4.164 4.164 0 0 1 3.834 4.47l-4.192 54.481a4.166 4.166 0 0 1-4.15 3.846M1229.08 357.422a4.167 4.167 0 0 1-4.065-5.102l12.58-54.48c.516-2.24 2.752-3.625 4.996-3.121a4.163 4.163 0 0 1 3.123 4.995l-12.578 54.48a4.168 4.168 0 0 1-4.057 3.228M1301.488 433.991a4.145 4.145 0 0 1-1.494-.28 4.16 4.16 0 0 1-2.394-5.382l20.966-54.48a4.161 4.161 0 0 1 5.384-2.39 4.16 4.16 0 0 1 2.394 5.38l-20.966 54.48a4.166 4.166 0 0 1-3.89 2.672M1373.9 510.556a4.163 4.163 0 0 1-3.665-6.139l29.352-54.48a4.162 4.162 0 0 1 5.644-1.693 4.162 4.162 0 0 1 1.693 5.641l-29.351 54.48a4.166 4.166 0 0 1-3.673 2.191M1446.314 587.123a4.168 4.168 0 0 1-3.423-6.536l37.737-54.48a4.166 4.166 0 1 1 6.852 4.744l-37.737 54.48a4.165 4.165 0 0 1-3.43 1.792" fill="#4286F6"/><g transform="translate(1514.46 600.236)"><mask id="p" fill="#fff"><use xlink:href="#o"/></mask><path d="M4.27 63.455a4.14 4.14 0 0 1-2.69-.987 4.163 4.163 0 0 1-.489-5.868L47.214 2.12a4.168 4.168 0 0 1 5.874-.488 4.163 4.163 0 0 1 .49 5.868L7.453 61.98c-.825.975-2 1.475-3.183 1.475" fill="#4286F6" mask="url(#p)"/></g><g transform="translate(1076.938 -.518)"><mask id="r" fill="#fff"><use xlink:href="#q"/></mask><path d="M8.362 42.301a4.166 4.166 0 0 1-4.15-3.846L.018-16.025a4.166 4.166 0 0 1 3.836-4.471c2.298-.16 4.298 1.54 4.473 3.834l4.194 54.48a4.164 4.164 0 0 1-4.159 4.483" fill="#4286F6" mask="url(#r)"/></g><path d="M1157.722 118.35a4.164 4.164 0 0 1-4.159-4.483l4.194-54.48a4.157 4.157 0 0 1 4.473-3.834 4.166 4.166 0 0 1 3.836 4.471l-4.194 54.48a4.166 4.166 0 0 1-4.15 3.847M1230.136 194.918a4.167 4.167 0 0 1-4.065-5.102l12.58-54.48c.517-2.241 2.753-3.626 4.996-3.122a4.163 4.163 0 0 1 3.124 4.996l-12.578 54.48a4.168 4.168 0 0 1-4.057 3.228M1302.545 271.487a4.1 4.1 0 0 1-1.494-.281 4.159 4.159 0 0 1-2.394-5.381l20.964-54.48c.827-2.148 3.238-3.23 5.386-2.391a4.162 4.162 0 0 1 2.393 5.38l-20.965 54.481a4.166 4.166 0 0 1-3.89 2.672M1374.956 348.052a4.162 4.162 0 0 1-3.665-6.139l29.351-54.48a4.162 4.162 0 0 1 5.645-1.694 4.163 4.163 0 0 1 1.693 5.642l-29.351 54.48a4.166 4.166 0 0 1-3.673 2.19M1447.37 424.619a4.168 4.168 0 0 1-3.423-6.536l37.738-54.481a4.166 4.166 0 1 1 6.852 4.744l-37.737 54.48a4.165 4.165 0 0 1-3.43 1.793" fill="#4286F6"/><g transform="translate(1515.497 437.812)"><mask id="t" fill="#fff"><use xlink:href="#s"/></mask><path d="M4.29 63.373a4.14 4.14 0 0 1-2.69-.987 4.163 4.163 0 0 1-.49-5.868l46.123-54.48a4.168 4.168 0 0 1 5.873-.487 4.163 4.163 0 0 1 .49 5.868L7.473 61.899c-.825.975-2 1.474-3.184 1.474" fill="#4286F6" mask="url(#t)"/></g><g transform="translate(1235.279 -.518)"><mask id="v" fill="#fff"><use xlink:href="#u"/></mask><path d="M4.266 37.087a4.164 4.164 0 0 1-4.159-4.483L4.3-21.876c.177-2.293 2.17-3.994 4.475-3.834a4.164 4.164 0 0 1 3.834 4.47L8.417 33.242a4.166 4.166 0 0 1-4.15 3.846" fill="#4286F6" mask="url(#v)"/></g><path d="M1311.96 113.137a4.167 4.167 0 0 1-4.065-5.102l12.58-54.48c.516-2.241 2.75-3.626 4.995-3.122a4.163 4.163 0 0 1 3.123 4.995l-12.577 54.481a4.168 4.168 0 0 1-4.057 3.228M1384.368 189.706a4.145 4.145 0 0 1-1.494-.281 4.16 4.16 0 0 1-2.394-5.381l20.966-54.48a4.16 4.16 0 0 1 5.383-2.391 4.16 4.16 0 0 1 2.394 5.38l-20.965 54.481a4.166 4.166 0 0 1-3.89 2.672M1456.78 266.27a4.162 4.162 0 0 1-3.665-6.139l29.351-54.48a4.163 4.163 0 0 1 5.644-1.692 4.164 4.164 0 0 1 1.692 5.64l-29.35 54.481a4.166 4.166 0 0 1-3.672 2.19" fill="#4286F6"/><g transform="translate(1384.24 -.518)"><mask id="x" fill="#fff"><use xlink:href="#w"/></mask><path d="M4.9 31.432a4.1 4.1 0 0 1-1.494-.281 4.159 4.159 0 0 1-2.394-5.38L21.976-28.71c.827-2.147 3.237-3.228 5.385-2.39a4.162 4.162 0 0 1 2.394 5.38L8.79 28.76a4.166 4.166 0 0 1-3.89 2.672" fill="#4286F6" mask="url(#x)"/></g><path d="M1461.55 107.48a4.162 4.162 0 0 1-3.665-6.139l29.352-54.481a4.163 4.163 0 0 1 5.645-1.693 4.162 4.162 0 0 1 1.693 5.641l-29.351 54.48a4.166 4.166 0 0 1-3.673 2.191" fill="#4286F6"/><g transform="translate(89.388 811.599)"><mask id="z" fill="#fff"><use xlink:href="#y"/></mask><path d="M58.693 54.922a4.14 4.14 0 0 1-2.69-.987L1.493 7.838A4.165 4.165 0 1 1 6.878 1.48l54.51 46.1a4.163 4.163 0 0 1-2.694 7.342" fill="#4286F6" mask="url(#z)"/></g><path d="M71.471 785.762c-.819 0-1.644-.24-2.369-.74l-54.509-37.719a4.166 4.166 0 0 1-1.054-5.795 4.175 4.175 0 0 1 5.8-1.054l54.51 37.718a4.167 4.167 0 0 1-2.378 7.59M229.46 788.485a4.151 4.151 0 0 1-2.945-1.22l-54.51-54.479a4.162 4.162 0 0 1 0-5.889 4.168 4.168 0 0 1 5.893 0l54.509 54.479a4.162 4.162 0 0 1 0 5.889 4.148 4.148 0 0 1-2.946 1.22" fill="#4286F6"/><g transform="translate(250.85 802.224)"><mask id="B" fill="#fff"><use xlink:href="#A"/></mask><path d="M51.027 62.828c-1.184 0-2.359-.5-3.184-1.474L1.72 6.876a4.163 4.163 0 0 1 .49-5.868 4.165 4.165 0 0 1 5.873.487l46.123 54.478a4.163 4.163 0 0 1-.49 5.868 4.136 4.136 0 0 1-2.69.987" fill="#4286F6" mask="url(#B)"/></g><path d="M229.46 788.485a4.151 4.151 0 0 1-2.945-1.22l-54.51-54.479a4.162 4.162 0 0 1 0-5.889 4.168 4.168 0 0 1 5.893 0l54.509 54.479a4.162 4.162 0 0 1 0 5.889 4.148 4.148 0 0 1-2.946 1.22M152.851 707.729a4.14 4.14 0 0 1-2.69-.987l-54.508-46.1a4.165 4.165 0 1 1 5.383-6.357l54.51 46.102a4.163 4.163 0 0 1-2.695 7.342M76.242 626.97c-.819 0-1.644-.239-2.369-.738l-54.509-37.72a4.166 4.166 0 1 1 4.746-6.849l54.51 37.718a4.167 4.167 0 0 1-2.378 7.59" fill="#4286F6"/><g transform="translate(-.2 507.576)"><mask id="D" fill="#fff"><use xlink:href="#C"/></mask><path d="M-.165 38.637a4.128 4.128 0 0 1-1.97-.498l-54.51-29.336a4.165 4.165 0 0 1 3.95-7.334l54.51 29.336a4.162 4.162 0 0 1 1.693 5.641 4.166 4.166 0 0 1-3.673 2.19" fill="#4286F6" mask="url(#D)"/></g><path d="M311.283 706.706a4.151 4.151 0 0 1-2.946-1.22l-54.509-54.48a4.162 4.162 0 0 1 0-5.89 4.168 4.168 0 0 1 5.892 0l54.51 54.481a4.162 4.162 0 0 1 0 5.889 4.148 4.148 0 0 1-2.947 1.22M383.7 783.273c-1.183 0-2.358-.5-3.183-1.474l-46.124-54.48a4.163 4.163 0 0 1 .49-5.869 4.165 4.165 0 0 1 5.873.487l46.123 54.481a4.163 4.163 0 0 1-.49 5.868 4.14 4.14 0 0 1-2.689.987" fill="#4286F6"/><g transform="translate(413.358 797.022)"><mask id="F" fill="#fff"><use xlink:href="#E"/></mask><path d="M42.758 62.818a4.165 4.165 0 0 1-3.43-1.793L1.592 6.545A4.166 4.166 0 1 1 8.444 1.8L46.18 56.28a4.168 4.168 0 0 1-3.423 6.537" fill="#4286F6" mask="url(#F)"/></g><path d="M311.283 706.706a4.151 4.151 0 0 1-2.946-1.22l-54.509-54.48a4.162 4.162 0 0 1 0-5.89 4.168 4.168 0 0 1 5.892 0l54.51 54.481a4.162 4.162 0 0 1 0 5.889 4.148 4.148 0 0 1-2.947 1.22M234.674 625.948a4.14 4.14 0 0 1-2.69-.987l-54.509-46.097a4.166 4.166 0 0 1 5.384-6.357l54.509 46.099a4.163 4.163 0 0 1-2.694 7.342M158.065 545.19c-.819 0-1.644-.24-2.369-.74l-54.507-37.72a4.164 4.164 0 0 1-1.054-5.794 4.168 4.168 0 0 1 5.798-1.054l54.51 37.717a4.167 4.167 0 0 1-2.378 7.59M81.458 464.432a4.128 4.128 0 0 1-1.97-.498l-54.51-29.336a4.161 4.161 0 0 1-1.692-5.641 4.165 4.165 0 0 1 5.644-1.693L83.437 456.6a4.162 4.162 0 0 1 1.694 5.64 4.166 4.166 0 0 1-3.673 2.192" fill="#4286F6"/><g transform="translate(-.2 353.482)"><mask id="H" fill="#fff"><use xlink:href="#G"/></mask><path d="M5.054 30.194a4.145 4.145 0 0 1-1.494-.281L-50.949 8.96a4.164 4.164 0 1 1 2.992-7.773L6.55 22.14a4.166 4.166 0 1 1-1.496 8.052" fill="#4286F6" mask="url(#H)"/></g><path d="M312.34 544.201a4.148 4.148 0 0 1-2.946-1.22l-54.509-54.48a4.162 4.162 0 0 1 0-5.89 4.168 4.168 0 0 1 5.892 0l54.51 54.481a4.162 4.162 0 0 1 0 5.89 4.148 4.148 0 0 1-2.947 1.22M384.756 620.769c-1.183 0-2.358-.5-3.183-1.475l-46.124-54.48a4.163 4.163 0 0 1 .49-5.868 4.163 4.163 0 0 1 5.873.487l46.123 54.48a4.163 4.163 0 0 1-.49 5.869 4.14 4.14 0 0 1-2.689.987M457.173 697.336a4.165 4.165 0 0 1-3.43-1.793l-37.737-54.48a4.166 4.166 0 1 1 6.853-4.744l37.737 54.48a4.168 4.168 0 0 1-3.423 6.537M529.587 773.902a4.166 4.166 0 0 1-3.674-2.19l-29.351-54.48a4.162 4.162 0 0 1 1.694-5.642 4.165 4.165 0 0 1 5.644 1.693l29.351 54.48a4.162 4.162 0 0 1-3.664 6.14M601.997 850.472a4.166 4.166 0 0 1-3.89-2.672l-20.965-54.48a4.162 4.162 0 0 1 2.394-5.381 4.165 4.165 0 0 1 5.385 2.39l20.964 54.48a4.159 4.159 0 0 1-2.394 5.381c-.492.19-.996.282-1.494.282" fill="#4286F6"/><path d="M312.34 544.201a4.148 4.148 0 0 1-2.946-1.22l-54.509-54.48a4.162 4.162 0 0 1 0-5.89 4.168 4.168 0 0 1 5.892 0l54.51 54.481a4.162 4.162 0 0 1 0 5.89 4.148 4.148 0 0 1-2.947 1.22M235.731 463.443a4.14 4.14 0 0 1-2.69-.987l-54.509-46.099a4.165 4.165 0 1 1 5.384-6.357l54.509 46.1a4.163 4.163 0 0 1-2.694 7.343M159.122 382.685c-.819 0-1.644-.24-2.369-.74l-54.509-37.719a4.166 4.166 0 0 1-1.054-5.795 4.175 4.175 0 0 1 5.8-1.054l54.51 37.718a4.167 4.167 0 0 1-2.378 7.59M82.515 301.927a4.128 4.128 0 0 1-1.97-.498l-54.51-29.336a4.162 4.162 0 0 1-1.694-5.641 4.163 4.163 0 0 1 5.644-1.693l54.51 29.336a4.162 4.162 0 0 1 1.693 5.641 4.166 4.166 0 0 1-3.673 2.19" fill="#4286F6"/><g transform="translate(-.2 191.059)"><mask id="J" fill="#fff"><use xlink:href="#I"/></mask><path d="M6.111 30.112c-.498 0-1.002-.09-1.494-.279L-49.892 8.881a4.164 4.164 0 0 1-2.394-5.383 4.165 4.165 0 0 1 5.384-2.395L7.607 22.058a4.166 4.166 0 1 1-1.496 8.055" fill="#4286F6" mask="url(#J)"/></g><path d="M394.163 462.42a4.151 4.151 0 0 1-2.946-1.22l-54.509-54.48a4.162 4.162 0 0 1 0-5.89 4.168 4.168 0 0 1 5.892 0l54.509 54.481a4.162 4.162 0 0 1 0 5.89 4.148 4.148 0 0 1-2.946 1.22M466.58 538.987c-1.184 0-2.359-.5-3.184-1.474l-46.123-54.48a4.163 4.163 0 0 1 .49-5.869 4.163 4.163 0 0 1 5.873.488l46.123 54.48a4.163 4.163 0 0 1-.49 5.868 4.14 4.14 0 0 1-2.69.987M538.996 615.554a4.165 4.165 0 0 1-3.43-1.793l-37.737-54.48a4.166 4.166 0 1 1 6.852-4.744l37.738 54.48a4.168 4.168 0 0 1-3.423 6.537M611.41 692.122a4.166 4.166 0 0 1-3.673-2.191l-29.351-54.48a4.162 4.162 0 0 1 1.694-5.642 4.165 4.165 0 0 1 5.644 1.693l29.351 54.48a4.162 4.162 0 0 1-3.665 6.14M683.821 768.69a4.166 4.166 0 0 1-3.89-2.671l-20.965-54.48a4.162 4.162 0 0 1 2.393-5.381 4.165 4.165 0 0 1 5.386 2.39l20.964 54.48a4.159 4.159 0 0 1-2.394 5.381c-.492.19-.996.282-1.494.282M756.23 845.255a4.168 4.168 0 0 1-4.057-3.227l-12.577-54.48a4.163 4.163 0 0 1 3.123-4.996c2.243-.508 4.479.88 4.996 3.121l12.58 54.48a4.167 4.167 0 0 1-4.065 5.102" fill="#4286F6"/><path d="M394.163 462.42a4.151 4.151 0 0 1-2.946-1.22l-54.509-54.48a4.162 4.162 0 0 1 0-5.89 4.168 4.168 0 0 1 5.892 0l54.509 54.481a4.162 4.162 0 0 1 0 5.89 4.148 4.148 0 0 1-2.946 1.22M317.554 381.662a4.14 4.14 0 0 1-2.69-.987l-54.509-46.097a4.163 4.163 0 0 1-.487-5.87 4.168 4.168 0 0 1 5.87-.487l54.51 46.099a4.163 4.163 0 0 1-2.694 7.342M240.945 300.904c-.819 0-1.644-.24-2.367-.74l-54.509-37.717a4.164 4.164 0 0 1-1.054-5.795 4.172 4.172 0 0 1 5.798-1.054l54.507 37.716a4.166 4.166 0 0 1-2.375 7.59M164.338 220.146a4.128 4.128 0 0 1-1.971-.498l-54.51-29.336a4.161 4.161 0 0 1-1.691-5.641 4.161 4.161 0 0 1 5.644-1.693l54.507 29.336a4.162 4.162 0 0 1 1.694 5.641 4.166 4.166 0 0 1-3.673 2.19M87.734 139.39a4.145 4.145 0 0 1-1.494-.281l-54.509-20.953a4.164 4.164 0 1 1 2.992-7.773l54.507 20.954a4.166 4.166 0 1 1-1.496 8.052" fill="#4286F6"/><g transform="translate(-.2 36.965)"><mask id="L" fill="#fff"><use xlink:href="#K"/></mask><path d="M11.332 21.665a4.31 4.31 0 0 1-.942-.106L-44.119 8.988a4.165 4.165 0 0 1-3.123-4.994A4.175 4.175 0 0 1-42.244.871l54.51 12.57a4.165 4.165 0 0 1-.934 8.224" fill="#4286F6" mask="url(#L)"/></g><path d="M398.935 303.629a4.148 4.148 0 0 1-2.946-1.22l-54.509-54.48a4.162 4.162 0 0 1 0-5.89 4.168 4.168 0 0 1 5.892 0l54.51 54.48a4.162 4.162 0 0 1 0 5.89 4.148 4.148 0 0 1-2.947 1.22M471.35 380.196c-1.182 0-2.358-.5-3.183-1.474l-46.123-54.48a4.163 4.163 0 0 1 .49-5.869 4.163 4.163 0 0 1 5.873.487l46.123 54.481a4.163 4.163 0 0 1-.49 5.868 4.14 4.14 0 0 1-2.69.987M543.768 456.763a4.165 4.165 0 0 1-3.43-1.793l-37.737-54.48a4.166 4.166 0 1 1 6.852-4.744l37.738 54.48a4.168 4.168 0 0 1-3.423 6.537M616.182 533.33a4.166 4.166 0 0 1-3.674-2.19l-29.351-54.481a4.167 4.167 0 0 1 7.338-3.948l29.351 54.48a4.162 4.162 0 0 1-3.664 6.14M688.592 609.9a4.166 4.166 0 0 1-3.89-2.673l-20.965-54.48a4.168 4.168 0 0 1 7.78-2.99l20.963 54.48a4.159 4.159 0 0 1-2.394 5.381c-.492.19-.996.281-1.494.281M761.002 686.464a4.168 4.168 0 0 1-4.057-3.227l-12.577-54.481a4.163 4.163 0 0 1 3.123-4.996c2.237-.503 4.48.881 4.996 3.122l12.58 54.48a4.167 4.167 0 0 1-4.065 5.102M833.416 763.031a4.166 4.166 0 0 1-4.15-3.846l-4.194-54.48a4.166 4.166 0 0 1 3.835-4.471c2.309-.159 4.298 1.54 4.473 3.833l4.194 54.48a4.164 4.164 0 0 1-4.158 4.484M905.837 839.598a4.164 4.164 0 0 1-4.159-4.483l4.195-54.48c.175-2.295 2.173-3.986 4.473-3.834a4.166 4.166 0 0 1 3.836 4.47l-4.194 54.481a4.166 4.166 0 0 1-4.15 3.846" fill="#4286F6"/><g transform="translate(973.803 853.246)"><mask id="N" fill="#fff"><use xlink:href="#M"/></mask><path d="M4.45 62.92a4.167 4.167 0 0 1-4.065-5.102l12.58-54.48C13.48 1.096 15.714-.29 17.96.215a4.163 4.163 0 0 1 3.123 4.995L8.506 59.691a4.168 4.168 0 0 1-4.057 3.229" fill="#4286F6" mask="url(#N)"/></g><path d="M398.935 303.629a4.148 4.148 0 0 1-2.946-1.22l-54.509-54.48a4.162 4.162 0 0 1 0-5.89 4.168 4.168 0 0 1 5.892 0l54.51 54.48a4.162 4.162 0 0 1 0 5.89 4.148 4.148 0 0 1-2.947 1.22M322.326 222.87a4.14 4.14 0 0 1-2.69-.986l-54.509-46.1a4.165 4.165 0 1 1 5.384-6.357l54.509 46.101a4.163 4.163 0 0 1-2.694 7.343M245.717 142.113c-.819 0-1.644-.24-2.369-.74l-54.509-37.72a4.166 4.166 0 0 1-1.054-5.794 4.174 4.174 0 0 1 5.8-1.054l54.51 37.718a4.167 4.167 0 0 1-2.378 7.59M169.11 61.354a4.128 4.128 0 0 1-1.97-.497L112.63 31.52a4.165 4.165 0 0 1 3.95-7.334l54.51 29.336a4.162 4.162 0 0 1 1.693 5.64 4.166 4.166 0 0 1-3.673 2.191M480.758 221.848a4.151 4.151 0 0 1-2.946-1.22l-54.509-54.48a4.162 4.162 0 0 1 0-5.89 4.168 4.168 0 0 1 5.892 0l54.509 54.48a4.162 4.162 0 0 1 0 5.89 4.148 4.148 0 0 1-2.946 1.22M553.175 298.415c-1.184 0-2.359-.5-3.184-1.474l-46.123-54.48a4.163 4.163 0 0 1 .49-5.869 4.163 4.163 0 0 1 5.873.487l46.123 54.48a4.163 4.163 0 0 1-.49 5.869 4.14 4.14 0 0 1-2.69.987M625.59 374.982a4.165 4.165 0 0 1-3.429-1.793l-37.737-54.48a4.166 4.166 0 1 1 6.852-4.744l37.738 54.48a4.168 4.168 0 0 1-3.423 6.537M698.004 451.55a4.169 4.169 0 0 1-3.673-2.192l-29.35-54.48a4.164 4.164 0 0 1 1.693-5.641 4.172 4.172 0 0 1 5.644 1.693l29.351 54.48a4.162 4.162 0 0 1-3.665 6.14M770.416 528.118a4.166 4.166 0 0 1-3.89-2.672l-20.965-54.48a4.16 4.16 0 0 1 2.393-5.38 4.165 4.165 0 0 1 5.384 2.39l20.966 54.48a4.16 4.16 0 0 1-2.394 5.381c-.492.19-.996.281-1.494.281M842.825 604.683a4.168 4.168 0 0 1-4.057-3.228l-12.577-54.48a4.163 4.163 0 0 1 3.123-4.996c2.237-.504 4.479.881 4.996 3.122l12.58 54.48a4.167 4.167 0 0 1-4.065 5.102M915.24 681.25a4.166 4.166 0 0 1-4.15-3.846l-4.195-54.48a4.166 4.166 0 0 1 3.836-4.471 4.159 4.159 0 0 1 4.473 3.833l4.194 54.48a4.164 4.164 0 0 1-4.159 4.484M987.661 757.817a4.164 4.164 0 0 1-4.159-4.483l4.194-54.48c.175-2.293 2.159-3.995 4.474-3.834a4.166 4.166 0 0 1 3.835 4.47l-4.194 54.481a4.166 4.166 0 0 1-4.15 3.846M1060.075 834.384a4.167 4.167 0 0 1-4.065-5.102l12.58-54.48c.516-2.24 2.75-3.626 4.996-3.122a4.163 4.163 0 0 1 3.123 4.996l-12.578 54.48a4.168 4.168 0 0 1-4.056 3.228" fill="#4286F6"/><g transform="translate(1127.977 848.035)"><mask id="P" fill="#fff"><use xlink:href="#O"/></mask><path d="M4.507 62.918a4.1 4.1 0 0 1-1.494-.281A4.159 4.159 0 0 1 .62 57.256l20.964-54.48C22.41.627 24.821-.453 26.969.384a4.162 4.162 0 0 1 2.394 5.38L8.397 60.247a4.166 4.166 0 0 1-3.89 2.672" fill="#4286F6" mask="url(#P)"/></g><path d="M480.758 221.848a4.151 4.151 0 0 1-2.946-1.22l-54.509-54.48a4.162 4.162 0 0 1 0-5.89 4.168 4.168 0 0 1 5.892 0l54.509 54.48a4.162 4.162 0 0 1 0 5.89 4.148 4.148 0 0 1-2.946 1.22M404.149 141.09a4.14 4.14 0 0 1-2.69-.987L346.95 94.006a4.163 4.163 0 0 1-.487-5.87 4.168 4.168 0 0 1 5.87-.488l54.51 46.1a4.163 4.163 0 0 1-2.694 7.342M327.54 60.332c-.82 0-1.644-.24-2.367-.74l-54.51-37.717a4.164 4.164 0 1 1 4.743-6.85l54.509 37.716a4.166 4.166 0 0 1-2.375 7.59" fill="#4286F6"/></g></svg>