<svg xmlns="http://www.w3.org/2000/svg" xmlns:xlink="http://www.w3.org/1999/xlink" width="200" height="156" viewBox="0 0 200 156"><defs><linearGradient id="a" x1="0.5" x2="0.5" y2="1" gradientUnits="objectBoundingBox"><stop offset="0" stop-color="#1de9b6"/><stop offset="1" stop-color="#2c7bff"/><stop offset="1" stop-color="#5b5a5a"/></linearGradient><linearGradient id="b" x1="0.611" y1="0.882" x2="0.291" y2="0.158" gradientUnits="objectBoundingBox"><stop offset="0" stop-color="#4e5aa0"/><stop offset="1" stop-color="#4c5da9"/></linearGradient><linearGradient id="c" x1="0.5" x2="0.5" y2="1" gradientUnits="objectBoundingBox"><stop offset="0" stop-color="#6b91c8"/><stop offset="1" stop-color="#618ac3"/></linearGradient><linearGradient id="d" x1="0.5" y1="1" x2="0.5" gradientUnits="objectBoundingBox"><stop offset="0" stop-color="#6fc69d"/><stop offset="1" stop-color="#66c296"/></linearGradient></defs><g transform="translate(-35 -6)"><path d="M5.532,100.206A45.958,45.958,0,0,1,15.927,70.658,45.82,45.82,0,0,1,42.3,54.008,56.723,56.723,0,0,1,62.606,21.573a56.1,56.1,0,0,1,36.189-12.7,57.249,57.249,0,0,1,55.727,43.985H157.7a47.878,47.878,0,0,1,23.965,6.256,46.059,46.059,0,0,1,17.421,17.228,46.729,46.729,0,0,1,6.449,23.869,47.591,47.591,0,0,1-22.714,40.9,46.666,46.666,0,0,1-23.2,6.93H51.73a46.879,46.879,0,0,1-32.724-14.726A45.7,45.7,0,0,1,5.532,100.206Zm16.458,0a30.707,30.707,0,0,0,8.662,21.752,30.315,30.315,0,0,0,21.078,9.913h107.7a29.928,29.928,0,0,0,21.078-9.913,30.554,30.554,0,0,0,8.758-21.752c0-8.47-3.176-15.688-9.432-21.848a30.68,30.68,0,0,0-22.329-9.24h-15.4c-1.059,0-1.636-.577-1.636-1.732L139.8,61.9a39.362,39.362,0,0,0-13.474-26.179A40.111,40.111,0,0,0,98.795,25.134a39.536,39.536,0,0,0-27.43,10.587A39.022,39.022,0,0,0,58.179,61.9l-.77,5.486c0,1.155-.674,1.732-1.925,1.732h-5.1a31.694,31.694,0,0,0-20.212,10.3A29.816,29.816,0,0,0,21.99,100.206Z" transform="translate(29.468 -2.868)" fill="url(#a)"/><rect width="66" height="62" transform="translate(101 84)" fill="#fff"/><g transform="translate(88 91)"><path d="M46,71V21a25,25,0,0,0,0,50Z" fill="#d3e1f2" fill-rule="evenodd"/><path d="M256,71V21a25,25,0,0,1,0,50Z" transform="translate(-210)" fill="#5364ae" fill-rule="evenodd"/><path d="M24.767,0,19.954,47.58.022,26.057Q0,25.528,0,25A25,25,0,0,1,24.767,0Z" transform="translate(71 70.999) rotate(180)" fill-rule="evenodd" fill="url(#b)"/><path d="M145.191,71V21C137.906,21,132,32.193,132,46S137.906,71,145.191,71Z" transform="translate(-99.191)" fill-rule="evenodd" fill="url(#c)"/><path d="M13.191,0V50C5.906,50,0,38.807,0,25S5.906,0,13.191,0Z" transform="translate(59.191 71) rotate(180)" fill-rule="evenodd" fill="url(#d)"/></g></g></svg>