<svg xmlns="http://www.w3.org/2000/svg" xmlns:xlink="http://www.w3.org/1999/xlink" width="40" height="40.004" viewBox="0 0 40 40.004"><defs><linearGradient id="a" x1="0.5" x2="0.5" y2="0.748" gradientUnits="objectBoundingBox"><stop offset="0" stop-color="#4d5ea8"/><stop offset="1" stop-color="#2a87f6"/></linearGradient><filter id="b" x="0" y="0" width="40" height="40.004" filterUnits="userSpaceOnUse"><feOffset dy="3" input="SourceAlpha"/><feGaussianBlur stdDeviation="3" result="c"/><feFlood flood-opacity="0.161"/><feComposite operator="in" in2="c"/><feComposite in="SourceGraphic"/></filter></defs><g transform="translate(-384.486 -170.832)"><g transform="matrix(1, 0, 0, 1, 384.49, 170.83)" filter="url(#b)"><rect width="22.004" height="22" rx="2" transform="translate(9 28) rotate(-90)" fill="url(#a)"/></g><path d="M7.291,0A7.818,7.818,0,0,0,5.954.155,7.416,7.416,0,0,0,.132,6.08a7.408,7.408,0,0,0,6.975,8.91l6.786.01A1.108,1.108,0,0,0,15,13.892V7.5A7.5,7.5,0,0,0,7.291,0ZM7.5,3.835A3.665,3.665,0,0,1,11.165,7.5v3.506a.171.171,0,0,1-.292.121l-.913-.913A3.665,3.665,0,1,1,7.5,3.835Z" transform="translate(396.999 179.999)" fill="#fff"/></g></svg>