<svg xmlns="http://www.w3.org/2000/svg" xmlns:xlink="http://www.w3.org/1999/xlink" width="118" height="118" viewBox="0 0 118 118"><defs><linearGradient id="a" x1="0.5" x2="0.5" y2="0.748" gradientUnits="objectBoundingBox"><stop offset="0" stop-color="#4d5ea8"/><stop offset="1" stop-color="#2a87f6"/></linearGradient><filter id="b" x="0" y="0" width="118" height="118" filterUnits="userSpaceOnUse"><feOffset dy="3" input="SourceAlpha"/><feGaussianBlur stdDeviation="3" result="c"/><feFlood flood-opacity="0.161"/><feComposite operator="in" in2="c"/><feComposite in="SourceGraphic"/></filter></defs><g transform="translate(-384.486 -170.832)"><g transform="matrix(1, 0, 0, 1, 384.49, 170.83)" filter="url(#b)"><rect width="100" height="100" rx="2" transform="translate(9 106) rotate(-90)" fill="url(#a)"/></g><path d="M33.138.014a35.543,35.543,0,0,0-6.08.69A33.705,33.705,0,0,0,.6,27.631C-3.268,48.667,12.232,68.124,32.3,68.124l30.844.045a5.037,5.037,0,0,0,5.04-5.039V34.084A34.09,34.09,0,0,0,33.138.014Zm.952,17.412A16.656,16.656,0,0,1,50.743,34.084V50.019a.776.776,0,0,1-1.327.551l-4.148-4.147a16.657,16.657,0,1,1-11.182-29Z" transform="translate(409.458 191.228)" fill="#fff"/></g></svg>