<svg xmlns="http://www.w3.org/2000/svg" xmlns:xlink="http://www.w3.org/1999/xlink" width="500" height="436.415" viewBox="0 0 500 436.415"><defs><linearGradient id="a" y1="0.5" x2="1" y2="0.5" gradientUnits="objectBoundingBox"><stop offset="0.03" stop-color="#4079d8"/><stop offset="1" stop-color="#4989f5"/></linearGradient><linearGradient id="b" x1="0.5" y1="0.915" x2="0.671" y2="1" gradientUnits="objectBoundingBox"><stop offset="0" stop-color="#4685ee"/><stop offset="1" stop-color="#4887f2"/></linearGradient><linearGradient id="c" x1="0.611" y1="0.882" x2="0.291" y2="0.158" gradientUnits="objectBoundingBox"><stop offset="0" stop-color="#4e5aa0"/><stop offset="1" stop-color="#4c5da9"/></linearGradient><linearGradient id="d" x1="0.5" x2="0.5" y2="1" gradientUnits="objectBoundingBox"><stop offset="0" stop-color="#6b91c8"/><stop offset="1" stop-color="#618ac3"/></linearGradient><linearGradient id="e" x1="0.5" y1="1" x2="0.5" gradientUnits="objectBoundingBox"><stop offset="0" stop-color="#6fc69d"/><stop offset="1" stop-color="#66c296"/></linearGradient></defs><g transform="translate(11 -617)"><g transform="translate(-11 616.57)"><g transform="translate(0 0.43)"><rect width="437.5" height="327.133" rx="36.88" transform="translate(25.117 109.281)" fill="#4989f5"/><path d="M468.838,227.75H75.629c-12.18,0-21.659,94.267-21.659,106.447L269.3,557.341H468.838a22.208,22.208,0,0,0,22.148-22.148v-285.3A22.208,22.208,0,0,0,468.838,227.75Z" transform="translate(-28.608 -120.927)" fill="url(#a)"/><path d="M266.03,164.5h125V.44H284.747Z" transform="translate(-141.016 -0.435)" fill="#3c4ba6"/><path d="M657.03,164.5h-125V.44H638.313Zm87.6-132.961.155.559C744.751,31.9,744.676,31.718,744.633,31.54Z" transform="translate(-282.016 -0.435)" fill="#7babf7"/><path d="M864.676,32.089l-.155-.559a39.535,39.535,0,0,0-38.6-31.1H758.2l18.7,164.065h125Z" transform="translate(-401.903 -0.43)" fill="#3f51b5"/><path d="M79.435,66.62l-.155.559C79.318,66.982,79.393,66.8,79.435,66.62Z" transform="translate(-42.024 -35.516)" fill="#7babf7"/><path d="M37.251,32.089l.155-.559A39.535,39.535,0,0,1,76.006.43h67.726L125,164.495H0Z" transform="translate(0 -0.43)" fill="#7babf7"/></g><path d="M125.56,349.47a62.465,62.465,0,1,1-124.93,0Z" transform="translate(-0.334 -185.017)" fill="#709be0" fill-rule="evenodd"/><path d="M391.409,349.47a62.465,62.465,0,1,1-124.93,0Z" transform="translate(-141.254 -185.017)" fill="#3c4ba6" fill-rule="evenodd"/><path d="M657.26,349.47a62.465,62.465,0,1,1-124.929,0Z" transform="translate(-282.175 -185.017)" fill="#709be0" fill-rule="evenodd"/><path d="M923.08,349.47a62.465,62.465,0,0,1-124.93,0Z" transform="translate(-423.079 -185.017)" fill="#3c4ba6" fill-rule="evenodd"/><path d="M771.233,633.583c-.221-2.975-.588-5.691-1.109-9.159H701.985c0,9.53,0,19.93-.037,29.464h39.474a34.329,34.329,0,0,1-14.45,22.035s0-.164-.028-.169a41.356,41.356,0,0,1-15.978,6.236,46.926,46.926,0,0,1-17.288-.075,43.187,43.187,0,0,1-16.123-6.988,44.981,44.981,0,0,1-15.85-20.254c-.245-.634-.47-1.274-.7-1.922v-.071l.061-.047a43.7,43.7,0,0,1-.023-28.12,45.239,45.239,0,0,1,10.484-17.058,42.589,42.589,0,0,1,42.913-11.175,39,39,0,0,1,15.616,9.192l13.318-13.318c2.35-2.373,4.789-4.671,7.049-7.124a70.385,70.385,0,0,0-23.327-14.445,73.345,73.345,0,0,0-48.792-.428q-.827.282-1.645.587a72.924,72.924,0,0,0-39.389,35.3,71.7,71.7,0,0,0-6.306,18.224,72.486,72.486,0,0,0,52.26,84.3,77.526,77.526,0,0,0,37.072.39,63.746,63.746,0,0,0,48-45.62A84.12,84.12,0,0,0,771.233,633.583Z" transform="translate(-333.695 -299.896)" fill="#fff"/></g><ellipse cx="76" cy="78.5" rx="76" ry="78.5" transform="translate(279 879)" fill="url(#b)"/><rect width="225" height="171" transform="translate(218 865)" fill="#fff"/><g transform="translate(298 901)"><path d="M71,121V21a50,50,0,0,0,0,100Z" fill="#d3e1f2" fill-rule="evenodd"/><path d="M256,121V21a50,50,0,0,1,0,100Z" transform="translate(-185)" fill="#5364ae" fill-rule="evenodd"/><path d="M49.534,0,39.908,95.16.044,52.114Q0,51.057,0,50A50,50,0,0,1,49.534,0Z" transform="translate(121 120.998) rotate(180)" fill-rule="evenodd" fill="url(#c)"/><path d="M158.383,121V21C143.812,21,132,43.386,132,71S143.812,121,158.383,121Z" transform="translate(-87.383)" fill-rule="evenodd" fill="url(#d)"/><path d="M26.383,0V100C11.812,100,0,77.614,0,50S11.812,0,26.383,0Z" transform="translate(97.383 121) rotate(180)" fill-rule="evenodd" fill="url(#e)"/></g></g></svg>