<svg xmlns="http://www.w3.org/2000/svg" xmlns:xlink="http://www.w3.org/1999/xlink" width="47.264" height="25.196" viewBox="0 0 47.264 25.196"><defs><linearGradient id="a" x1="0.5" x2="0.5" y2="1" gradientUnits="objectBoundingBox"><stop offset="0" stop-color="#88abdc"/><stop offset="1" stop-color="#1956ab"/></linearGradient><linearGradient id="b" x1="0.5" x2="0.5" y2="1" gradientUnits="objectBoundingBox"><stop offset="0" stop-color="#68c398"/><stop offset="1" stop-color="#47bb84"/></linearGradient><linearGradient id="c" x1="0.595" y1="0.166" x2="0.405" y2="1.105" gradientUnits="objectBoundingBox"><stop offset="0"/><stop offset="1" stop-color="#fff" stop-opacity="0"/></linearGradient><linearGradient id="d" x1="0.611" y1="0.882" x2="0.291" y2="0.158" gradientUnits="objectBoundingBox"><stop offset="0" stop-color="#4e5aa0"/><stop offset="1" stop-color="#4c5da9"/></linearGradient><linearGradient id="e" x1="0.5" x2="0.5" y2="1" gradientUnits="objectBoundingBox"><stop offset="0" stop-color="#6b91c8"/><stop offset="1" stop-color="#618ac3"/></linearGradient><linearGradient id="f" x1="0.5" y1="1" x2="0.5" gradientUnits="objectBoundingBox"><stop offset="0" stop-color="#6fc69d"/><stop offset="1" stop-color="#66c296"/></linearGradient></defs><g transform="translate(-134.5 -374.189)"><path d="M27,14.876H25.11A12,12,0,0,0,11.476,6.168,11.824,11.824,0,0,0,13.5,29.67H27a7.4,7.4,0,1,0,0-14.794Z" transform="translate(147.264 368.191)" fill="url(#a)"/><path d="M30.734,16.158A10.546,10.546,0,0,0,11.573,11.3a4.984,4.984,0,0,0-1.891-.373,5.207,5.207,0,0,0-5.02,5.161A6.868,6.868,0,0,0,0,22.605,6.613,6.613,0,0,0,6.391,29.25H29.616a6.617,6.617,0,0,0,1.118-13.092Z" transform="translate(135 369.25)" stroke="#fff" stroke-width="1" fill="url(#b)"/><rect width="10" height="13.928" rx="5" transform="matrix(0.695, -0.719, 0.719, 0.695, 146.723, 389.711)" opacity="0.2" fill="url(#c)"/><g transform="translate(148.094 383.719)"><path d="M26,31V21a5,5,0,1,0,0,10Z" transform="translate(-21 -21)" fill="#d3e1f2" fill-rule="evenodd"/><path d="M256,31V21a5,5,0,1,1,0,10Z" transform="translate(-251 -21)" fill="#5364ae" fill-rule="evenodd"/><path d="M4.953,0,3.991,9.516,0,5.211Q0,5.106,0,5A5,5,0,0,1,4.953,0Z" transform="translate(10 10) rotate(180)" fill-rule="evenodd" fill="url(#d)"/><path d="M134.638,31V21C133.181,21,132,23.239,132,26S133.181,31,134.638,31Z" transform="translate(-129.638 -21)" fill-rule="evenodd" fill="url(#e)"/><path d="M2.638,0V10C1.181,10,0,7.761,0,5S1.181,0,2.638,0Z" transform="translate(7.638 10) rotate(180)" fill-rule="evenodd" fill="url(#f)"/></g></g></svg>