<svg width="1521" height="854" viewBox="0 0 1521 854" xmlns="http://www.w3.org/2000/svg" xmlns:xlink="http://www.w3.org/1999/xlink"><title>about_fallback_4</title><defs><path id="a" d="M.95 29.633V.368h51.728v29.265H.951z"/><path id="c" d="M.95 31.167V1.903h37.562v29.264H.95z"/><path id="e" d="M.95 29.619V.352h32.797V29.62H.95z"/><path id="g" d="M.95 29.927V.663h29.886v29.264H.951z"/><path id="i" d="M.263 2.074h37.638v3.318H.263V2.074z"/><path id="k" d="M1.898 2.074h62.76v1.034H1.898V2.074z"/><path id="m" d="M21.932 62.413H1.045V.87h20.887v61.543z"/><path id="o" d="M2.027 2.074h62.761v.168H2.027v-.168z"/><path id="q" d="M13.495 29.122H.985V.786h12.51v28.336z"/><path id="s" d="M29.47 33.283H.209V1.195h29.263v32.088z"/><path id="u" d="M46.523 27.04H.512V.61h46.01v26.43z"/><path id="w" d="M.95 31.092V1.826h50.9v29.266H.95z"/><path id="y" d="M63.35 20.799H.59V1.879h62.76V20.8z"/><path id="A" d="M.95 29.318V.053h47.99v29.265H.95z"/><path id="C" d="M63.35 20.799H.59V1.879h62.76V20.8z"/><path id="E" d="M.451 2.074h33.791v59.688H.452V2.074z"/></defs><g fill="none" fill-rule="evenodd"><g transform="translate(-1 326.672)"><mask id="b" fill="#fff"><use xlink:href="#a"/></mask><path d="M48.515 29.633c-.498 0-1.001-.092-1.492-.281L-7.415 8.416A4.161 4.161 0 1 1-4.427.648L50.01 21.587a4.157 4.157 0 0 1 2.39 5.376 4.16 4.16 0 0 1-3.884 2.67" fill="#4286F6" mask="url(#b)"/></g><path d="M124.028 428.621c-.31 0-.625-.035-.94-.106L68.65 415.952a4.163 4.163 0 0 1-3.12-4.992 4.17 4.17 0 0 1 4.992-3.119l54.438 12.564a4.163 4.163 0 0 1 3.119 4.991 4.163 4.163 0 0 1-4.051 3.225M200.534 500.94c-.106 0-.214-.004-.322-.012l-54.438-4.189a4.16 4.16 0 0 1-3.83-4.467 4.158 4.158 0 0 1 4.467-3.83l54.438 4.188a4.16 4.16 0 0 1-.315 8.31" fill="#4286F6"/><path d="M222.595 577.447a4.161 4.161 0 0 1-.314-8.31l54.438-4.189a4.153 4.153 0 0 1 4.467 3.83 4.16 4.16 0 0 1-3.83 4.468l-54.438 4.188a4.217 4.217 0 0 1-.323.013M299.102 658.142a4.163 4.163 0 0 1-.932-8.217l54.438-12.561c2.243-.506 4.475.88 4.991 3.12a4.162 4.162 0 0 1-3.119 4.99l-54.437 12.562c-.317.07-.63.106-.941.106M375.614 738.838a4.16 4.16 0 0 1-3.885-2.67 4.16 4.16 0 0 1 2.39-5.378l54.438-20.938c2.14-.816 4.553.245 5.377 2.393a4.16 4.16 0 0 1-2.39 5.378l-54.438 20.937a4.18 4.18 0 0 1-1.492.278M452.124 819.53a4.16 4.16 0 0 1-1.977-7.825l54.438-29.313a4.158 4.158 0 0 1 5.636 1.692 4.16 4.16 0 0 1-1.691 5.636l-54.438 29.314a4.121 4.121 0 0 1-1.968.497" fill="#4285F4"/><g transform="translate(-1 474.402)"><mask id="d" fill="#fff"><use xlink:href="#c"/></mask><path d="M34.348 31.167c-.497 0-1-.092-1.492-.281L-21.582 9.95a4.161 4.161 0 1 1 2.988-7.768l54.436 20.939a4.157 4.157 0 0 1 2.39 5.376 4.16 4.16 0 0 1-3.884 2.67" fill="#E2332A" mask="url(#d)"/></g><path d="M109.86 577.886c-.31 0-.624-.035-.94-.106l-54.436-12.561a4.16 4.16 0 0 1 1.87-8.111l54.438 12.561a4.162 4.162 0 0 1-.932 8.217" fill="#E12F27"/><path d="M186.367 650.207c-.107 0-.215-.004-.323-.013l-54.438-4.188a4.162 4.162 0 0 1-3.83-4.467c.177-2.291 2.17-3.991 4.47-3.83l54.435 4.188a4.16 4.16 0 0 1-.314 8.31" fill="#DF2B24"/><path d="M208.428 726.714a4.161 4.161 0 0 1-.314-8.31l54.436-4.19c2.297-.151 4.292 1.54 4.47 3.831a4.162 4.162 0 0 1-3.831 4.468L208.75 726.7a4.217 4.217 0 0 1-.323.013" fill="#DD2822"/><path d="M284.935 807.406a4.163 4.163 0 0 1-.932-8.216l54.438-12.562c2.24-.505 4.475.88 4.991 3.121a4.162 4.162 0 0 1-3.119 4.99L285.876 807.3c-.316.07-.63.106-.94.106" fill="#DB241F"/><g transform="translate(-1 634.617)"><mask id="f" fill="#fff"><use xlink:href="#e"/></mask><path d="M29.583 29.619c-.497 0-1-.09-1.492-.28L-26.346 8.405a4.16 4.16 0 0 1-2.391-5.38A4.156 4.156 0 0 1-23.361.633L31.077 21.57a4.16 4.16 0 0 1 2.39 5.379 4.16 4.16 0 0 1-3.884 2.67" fill="#F7B404" mask="url(#f)"/></g><path d="M105.095 736.554c-.31 0-.624-.035-.94-.106l-54.438-12.563a4.163 4.163 0 0 1-3.12-4.992c.517-2.239 2.75-3.626 4.992-3.119l54.438 12.564a4.163 4.163 0 0 1 3.119 4.991 4.163 4.163 0 0 1-4.051 3.225" fill="#F6B205"/><path d="M181.602 808.873c-.106 0-.215-.004-.323-.012l-54.437-4.189a4.16 4.16 0 0 1-3.831-4.467c.175-2.293 2.176-3.989 4.467-3.83l54.438 4.188a4.16 4.16 0 0 1-.314 8.31" fill="#F4B006"/><g transform="translate(-1 794.832)"><mask id="h" fill="#fff"><use xlink:href="#g"/></mask><path d="M26.672 29.927c-.497 0-1-.091-1.492-.28L-29.257 8.707A4.162 4.162 0 0 1-26.27.941l54.435 20.94a4.158 4.158 0 0 1 2.39 5.377 4.16 4.16 0 0 1-3.884 2.67" fill="#28A155" mask="url(#h)"/></g><path d="M1506.69 540.94a4.16 4.16 0 0 1-3.668-2.19l-29.313-54.437a4.16 4.16 0 0 1 1.692-5.637 4.158 4.158 0 0 1 5.637 1.692l29.313 54.437a4.16 4.16 0 0 1-3.66 6.134" fill="#115CCD"/><path d="M1425.993 464.434a4.16 4.16 0 0 1-3.885-2.67l-20.938-54.437a4.163 4.163 0 0 1 7.77-2.988l20.936 54.438a4.156 4.156 0 0 1-2.391 5.376c-.491.19-.995.281-1.492.281" fill="#1660D1"/><path d="M1345.294 387.926a4.163 4.163 0 0 1-4.05-3.226l-12.562-54.437a4.16 4.16 0 0 1 3.119-4.992c2.24-.505 4.473.88 4.99 3.12l12.563 54.437a4.163 4.163 0 0 1-4.06 5.098" fill="#1B64D5"/><path d="M1264.6 311.419a4.161 4.161 0 0 1-4.145-3.843l-4.188-54.438a4.162 4.162 0 0 1 3.83-4.467 4.151 4.151 0 0 1 4.467 3.83l4.189 54.438a4.16 4.16 0 0 1-4.153 4.48" fill="#1F68D9"/><path d="M1183.913 234.912a4.16 4.16 0 0 1-4.153-4.48l4.189-54.438a4.152 4.152 0 0 1 4.467-3.83 4.162 4.162 0 0 1 3.83 4.467l-4.188 54.438a4.161 4.161 0 0 1-4.145 3.843" fill="#246DDC"/><path d="M1103.219 158.405a4.163 4.163 0 0 1-4.06-5.098l12.564-54.437c.516-2.24 2.748-3.623 4.99-3.12a4.16 4.16 0 0 1 3.118 4.992l-12.561 54.438a4.163 4.163 0 0 1-4.051 3.225" fill="#2971E0"/><path d="M1022.52 81.9c-.497 0-1-.09-1.492-.28a4.156 4.156 0 0 1-2.39-5.377l20.936-54.438c.823-2.145 3.233-3.229 5.378-2.388a4.16 4.16 0 0 1 2.39 5.376l-20.937 54.438a4.16 4.16 0 0 1-3.885 2.67" fill="#2E75E4"/><g transform="translate(937.4)"><mask id="j" fill="#fff"><use xlink:href="#i"/></mask><path d="M4.422 5.392A4.16 4.16 0 0 1 .762-.742L30.075-55.18a4.157 4.157 0 0 1 5.636-1.692 4.16 4.16 0 0 1 1.692 5.637L8.09 3.203a4.16 4.16 0 0 1-3.668 2.189" fill="#3379E8" mask="url(#j)"/></g><path d="M1492.524 690.204a4.16 4.16 0 0 1-3.668-2.19l-29.313-54.437a4.16 4.16 0 1 1 7.328-3.945l29.313 54.438a4.16 4.16 0 0 1-3.66 6.134" fill="#C10505"/><path d="M1411.826 613.699a4.16 4.16 0 0 1-3.884-2.67l-20.939-54.437a4.162 4.162 0 1 1 7.77-2.988l20.936 54.437a4.156 4.156 0 0 1-2.39 5.377c-.492.19-.995.28-1.493.28" fill="#C30606"/><path d="M1331.127 537.19a4.163 4.163 0 0 1-4.051-3.225l-12.562-54.438a4.16 4.16 0 1 1 8.109-1.872l12.563 54.437a4.163 4.163 0 0 1-4.06 5.098" fill="#C50707"/><path d="M1250.433 460.683a4.161 4.161 0 0 1-4.145-3.843l-4.188-54.437a4.162 4.162 0 0 1 3.83-4.468 4.147 4.147 0 0 1 4.468 3.831l4.188 54.438a4.16 4.16 0 0 1-4.153 4.48" fill="#C70808"/><path d="M1169.747 384.177a4.16 4.16 0 0 1-4.153-4.48l4.188-54.438c.177-2.29 2.164-3.99 4.467-3.83a4.162 4.162 0 0 1 3.83 4.467l-4.188 54.437a4.161 4.161 0 0 1-4.144 3.844" fill="#C80909"/><path d="M1089.052 307.67a4.163 4.163 0 0 1-4.06-5.098l12.564-54.438c.516-2.238 2.748-3.624 4.99-3.119a4.16 4.16 0 0 1 3.118 4.992l-12.56 54.438a4.163 4.163 0 0 1-4.052 3.225" fill="#CA0B0B"/><path d="M1008.353 231.165c-.497 0-1-.09-1.492-.28a4.156 4.156 0 0 1-2.39-5.378l20.936-54.437a4.154 4.154 0 0 1 5.378-2.389 4.16 4.16 0 0 1 2.391 5.377l-20.938 54.437a4.16 4.16 0 0 1-3.885 2.67" fill="#CC0C0C"/><path d="M927.656 154.656a4.16 4.16 0 0 1-3.66-6.134l29.313-54.437a4.155 4.155 0 0 1 5.636-1.692 4.16 4.16 0 0 1 1.692 5.637l-29.313 54.437a4.16 4.16 0 0 1-3.668 2.19" fill="#CE0E0E"/><path d="M846.961 78.15a4.14 4.14 0 0 1-2.364-.74 4.166 4.166 0 0 1-1.055-5.792L881.23 17.18a4.166 4.166 0 0 1 5.791-1.052 4.164 4.164 0 0 1 1.053 5.792l-37.688 54.438a4.159 4.159 0 0 1-3.425 1.791" fill="#CF0F0F"/><path d="M1487.76 848.872a4.16 4.16 0 0 1-3.67-2.189l-29.312-54.437a4.16 4.16 0 0 1 1.691-5.637 4.159 4.159 0 0 1 5.637 1.692l29.313 54.437a4.16 4.16 0 0 1-3.66 6.134" fill="#E59402"/><path d="M1407.061 772.367a4.16 4.16 0 0 1-3.884-2.67l-20.938-54.437a4.157 4.157 0 0 1 2.39-5.376 4.16 4.16 0 0 1 5.377 2.388l20.938 54.438a4.157 4.157 0 0 1-2.39 5.376c-.492.19-.995.281-1.493.281" fill="#E69603"/><path d="M1326.362 695.856a4.163 4.163 0 0 1-4.051-3.225l-12.562-54.435a4.16 4.16 0 0 1 3.12-4.992c2.236-.505 4.473.88 4.989 3.12l12.563 54.435a4.163 4.163 0 0 1-4.06 5.097" fill="#E79704"/><path d="M1245.667 619.35a4.161 4.161 0 0 1-4.145-3.843l-4.186-54.436a4.16 4.16 0 0 1 3.829-4.467 4.159 4.159 0 0 1 4.469 3.83l4.186 54.436a4.16 4.16 0 0 1-4.153 4.48" fill="#E89905"/><path d="M1164.982 542.843a4.16 4.16 0 0 1-4.153-4.48l4.186-54.435a4.157 4.157 0 0 1 4.47-3.83 4.16 4.16 0 0 1 3.828 4.466L1169.127 539a4.161 4.161 0 0 1-4.145 3.843" fill="#E99A05"/><path d="M1084.287 466.336a4.163 4.163 0 0 1-4.06-5.098l12.564-54.435a4.16 4.16 0 1 1 8.109 1.873l-12.562 54.435a4.163 4.163 0 0 1-4.051 3.225" fill="#EB9C06"/><path d="M1003.587 389.831c-.497 0-1-.091-1.491-.28a4.157 4.157 0 0 1-2.391-5.377l20.938-54.436a4.159 4.159 0 0 1 5.377-2.388 4.157 4.157 0 0 1 2.39 5.376l-20.938 54.436a4.16 4.16 0 0 1-3.885 2.67" fill="#EC9D06"/><path d="M922.89 313.323a4.16 4.16 0 0 1-3.66-6.134l29.314-54.436a4.16 4.16 0 0 1 7.326 3.945l-29.31 54.436a4.16 4.16 0 0 1-3.67 2.189" fill="#EC9F07"/><path d="M842.196 236.816c-.818 0-1.642-.24-2.366-.739a4.168 4.168 0 0 1-1.053-5.793l37.688-54.435a4.166 4.166 0 0 1 5.79-1.053 4.164 4.164 0 0 1 1.054 5.793l-37.688 54.435a4.159 4.159 0 0 1-3.425 1.792" fill="#EDA007"/><path d="M761.504 160.309a4.16 4.16 0 0 1-3.175-6.85l46.062-54.437a4.16 4.16 0 0 1 5.866-.487 4.16 4.16 0 0 1 .489 5.863l-46.063 54.438a4.15 4.15 0 0 1-3.18 1.473" fill="#EEA208"/><path d="M680.81 83.802a4.16 4.16 0 0 1-2.942-7.104l54.438-54.437a4.16 4.16 0 1 1 5.885 5.884l-54.438 54.438a4.141 4.141 0 0 1-2.942 1.22" fill="#EFA309"/><g transform="translate(598.245)"><mask id="l" fill="#fff"><use xlink:href="#k"/></mask><path d="M6.061 3.108a4.16 4.16 0 0 1-2.69-7.337l54.438-46.063a4.16 4.16 0 0 1 5.865.487 4.163 4.163 0 0 1-.489 5.866L8.748 2.12a4.133 4.133 0 0 1-2.687.987" fill="#F0A508" mask="url(#l)"/></g><path d="M680.81 83.802a4.16 4.16 0 0 1-2.942-7.104l54.438-54.437a4.16 4.16 0 1 1 5.885 5.884l-54.438 54.438a4.141 4.141 0 0 1-2.942 1.22" fill="#EFA309"/><g transform="translate(1305.687 792.751)"><mask id="n" fill="#fff"><use xlink:href="#m"/></mask><path d="M17.765 63.63a4.163 4.163 0 0 1-4.05-3.226L1.152 5.966A4.16 4.16 0 1 1 9.26 4.094L21.825 58.53a4.163 4.163 0 0 1-4.06 5.098" fill="#068453" mask="url(#n)"/></g><path d="M1242.757 779.873a4.161 4.161 0 0 1-4.144-3.843l-4.189-54.437a4.162 4.162 0 0 1 3.83-4.468 4.152 4.152 0 0 1 4.468 3.83l4.189 54.439a4.16 4.16 0 0 1-4.154 4.48" fill="#068654"/><path d="M1162.07 703.367a4.16 4.16 0 0 1-4.153-4.48l4.19-54.438c.174-2.29 2.174-4.016 4.466-3.83a4.162 4.162 0 0 1 3.831 4.467l-4.188 54.438a4.161 4.161 0 0 1-4.145 3.843" fill="#068754"/><path d="M1081.376 626.86a4.163 4.163 0 0 1-4.06-5.098l12.564-54.438a4.16 4.16 0 1 1 8.109 1.873l-12.562 54.438a4.163 4.163 0 0 1-4.05 3.225" fill="#078955"/><path d="M1000.678 550.355c-.498 0-1.001-.09-1.492-.28a4.156 4.156 0 0 1-2.391-5.377l20.936-54.438c.824-2.145 3.236-3.227 5.379-2.389a4.16 4.16 0 0 1 2.39 5.377l-20.938 54.437a4.16 4.16 0 0 1-3.884 2.67" fill="#088B56"/><path d="M919.98 473.846a4.16 4.16 0 0 1-3.66-6.134l29.313-54.437a4.156 4.156 0 0 1 5.637-1.692 4.16 4.16 0 0 1 1.691 5.637l-29.313 54.437a4.16 4.16 0 0 1-3.668 2.19" fill="#098C56"/><path d="M839.285 397.34a4.14 4.14 0 0 1-2.363-.74 4.166 4.166 0 0 1-1.055-5.792l37.688-54.437a4.162 4.162 0 1 1 6.843 4.74l-37.688 54.437a4.159 4.159 0 0 1-3.425 1.792" fill="#0B8E57"/><path d="M758.594 320.833a4.16 4.16 0 0 1-3.175-6.85l46.062-54.438a4.162 4.162 0 0 1 6.355 5.377l-46.063 54.438a4.15 4.15 0 0 1-3.18 1.473" fill="#0C8F57"/><path d="M677.901 244.326a4.16 4.16 0 0 1-2.942-7.104l54.438-54.437a4.16 4.16 0 1 1 5.884 5.884l-54.438 54.438a4.141 4.141 0 0 1-2.942 1.219" fill="#0D9158"/><g transform="translate(442.192)"><mask id="p" fill="#fff"><use xlink:href="#o"/></mask><path d="M6.193 2.242a4.16 4.16 0 0 1-1.977-7.826l54.436-29.313a4.164 4.164 0 0 1 5.637 1.692 4.16 4.16 0 0 1-1.69 5.637L8.162 1.745a4.145 4.145 0 0 1-1.969.497" fill="#169657" mask="url(#p)"/></g><path d="M524.892 82.937a4.159 4.159 0 0 1-3.425-1.792 4.165 4.165 0 0 1 1.05-5.792l54.438-37.688a4.166 4.166 0 0 1 5.793 1.052 4.164 4.164 0 0 1-1.053 5.791l-54.438 37.69c-.724.5-1.548.739-2.365.739" fill="#139557"/><path d="M601.396 163.631a4.16 4.16 0 0 1-2.69-7.337l54.438-46.064a4.16 4.16 0 0 1 5.865.487 4.163 4.163 0 0 1-.489 5.865l-54.437 46.063a4.13 4.13 0 0 1-2.687.986" fill="#109358"/><path d="M677.901 244.326a4.16 4.16 0 0 1-2.942-7.104l54.438-54.437a4.16 4.16 0 1 1 5.884 5.884l-54.438 54.438a4.141 4.141 0 0 1-2.942 1.219" fill="#0D9158"/><g transform="translate(1178.763 826.042)"><mask id="r" fill="#fff"><use xlink:href="#q"/></mask><path d="M5.15 63.548a4.16 4.16 0 0 1-4.153-4.48L5.185 4.63A4.149 4.149 0 0 1 9.653.8a4.162 4.162 0 0 1 3.83 4.467L9.295 59.705a4.161 4.161 0 0 1-4.145 3.843" fill="#246DDC" mask="url(#r)"/></g><path d="M1103.219 813.084a4.163 4.163 0 0 1-4.06-5.098l12.564-54.438c.516-2.239 2.748-3.624 4.99-3.119a4.16 4.16 0 0 1 3.118 4.992l-12.561 54.437a4.163 4.163 0 0 1-4.051 3.226" fill="#2971E0"/><path d="M1022.52 736.579c-.497 0-1-.09-1.492-.281a4.156 4.156 0 0 1-2.39-5.377l20.936-54.437c.823-2.146 3.233-3.23 5.378-2.39a4.16 4.16 0 0 1 2.39 5.377l-20.937 54.438a4.16 4.16 0 0 1-3.885 2.67" fill="#2E75E4"/><path d="M941.822 660.07a4.16 4.16 0 0 1-3.66-6.134l29.313-54.438a4.157 4.157 0 0 1 5.637-1.691 4.16 4.16 0 0 1 1.692 5.636l-29.313 54.438a4.16 4.16 0 0 1-3.669 2.189" fill="#3379E8"/><path d="M861.128 583.563a4.14 4.14 0 0 1-2.364-.738 4.166 4.166 0 0 1-1.055-5.793l37.688-54.438a4.162 4.162 0 1 1 6.844 4.74l-37.688 54.438a4.159 4.159 0 0 1-3.425 1.791" fill="#387DEC"/><path d="M780.436 507.056c-.95 0-1.904-.322-2.686-.986a4.16 4.16 0 0 1-.489-5.863l46.063-54.438a4.161 4.161 0 0 1 6.354 5.377l-46.063 54.437a4.15 4.15 0 0 1-3.179 1.473" fill="#3D81F0"/><path d="M699.744 430.55a4.16 4.16 0 0 1-2.942-7.104l54.437-54.438a4.16 4.16 0 1 1 5.884 5.885l-54.437 54.437a4.141 4.141 0 0 1-2.942 1.22M317.206 27.077a4.163 4.163 0 0 1-.932-8.217L370.71 6.299c2.239-.506 4.474.88 4.99 3.12a4.16 4.16 0 0 1-3.12 4.99L318.147 26.97c-.316.071-.63.107-.94.107M393.717 107.773a4.16 4.16 0 0 1-3.884-2.67 4.157 4.157 0 0 1 2.39-5.376l54.436-20.938a4.161 4.161 0 0 1 2.988 7.767l-54.438 20.936c-.49.19-.994.281-1.492.281M470.227 188.466a4.16 4.16 0 0 1-1.977-7.826l54.436-29.313a4.164 4.164 0 0 1 5.637 1.692 4.16 4.16 0 0 1-1.69 5.636l-54.437 29.313a4.145 4.145 0 0 1-1.969.498M546.734 269.16a4.159 4.159 0 0 1-3.425-1.791 4.165 4.165 0 0 1 1.051-5.793l54.438-37.688a4.166 4.166 0 0 1 5.792 1.053 4.164 4.164 0 0 1-1.052 5.79l-54.438 37.69c-.724.5-1.548.74-2.366.74M623.239 349.855a4.16 4.16 0 0 1-2.69-7.337l54.437-46.064a4.16 4.16 0 0 1 5.866.486 4.163 4.163 0 0 1-.49 5.866l-54.437 46.063a4.13 4.13 0 0 1-2.686.986" fill="#4285F4"/><path d="M699.744 430.55a4.16 4.16 0 0 1-2.942-7.104l54.437-54.438a4.16 4.16 0 1 1 5.884 5.885l-54.437 54.437a4.141 4.141 0 0 1-2.942 1.22" fill="#4285F4"/><g transform="translate(1003.984 821.881)"><mask id="t" fill="#fff"><use xlink:href="#s"/></mask><path d="M4.37 63.962c-.498 0-1.001-.09-1.492-.28a4.156 4.156 0 0 1-2.39-5.377L21.422 3.867c.826-2.145 3.234-3.225 5.379-2.388a4.16 4.16 0 0 1 2.39 5.376L8.255 61.293a4.16 4.16 0 0 1-3.884 2.67" fill="#CC0C0C" mask="url(#t)"/></g><path d="M927.656 809.335a4.16 4.16 0 0 1-3.66-6.134l29.313-54.438a4.155 4.155 0 0 1 5.636-1.692 4.16 4.16 0 0 1 1.692 5.637l-29.313 54.438a4.16 4.16 0 0 1-3.668 2.189" fill="#CE0E0E"/><path d="M846.961 732.828a4.14 4.14 0 0 1-2.364-.739 4.166 4.166 0 0 1-1.055-5.793l37.688-54.437a4.166 4.166 0 0 1 5.791-1.053 4.164 4.164 0 0 1 1.053 5.793l-37.688 54.437a4.159 4.159 0 0 1-3.425 1.792" fill="#CF0F0F"/><path d="M766.268 656.321c-.95 0-1.904-.322-2.686-.986a4.16 4.16 0 0 1-.489-5.864l46.063-54.437a4.162 4.162 0 0 1 6.354 5.376l-46.062 54.438a4.15 4.15 0 0 1-3.18 1.473" fill="#D11010"/><path d="M685.577 579.814a4.16 4.16 0 0 1-2.942-7.104l54.437-54.437a4.16 4.16 0 1 1 5.885 5.884l-54.438 54.438a4.141 4.141 0 0 1-2.942 1.22" fill="#D31111"/><path d="M204.47 19.142c-.106 0-.214-.004-.322-.013l-54.438-4.188a4.16 4.16 0 1 1 .637-8.298l54.437 4.188a4.16 4.16 0 0 1-.314 8.31" fill="#DF2B24"/><path d="M226.532 95.648a4.161 4.161 0 0 1-.314-8.31l54.435-4.188a4.167 4.167 0 0 1 4.47 3.83 4.162 4.162 0 0 1-3.83 4.467l-54.438 4.189a4.217 4.217 0 0 1-.323.012" fill="#DD2822"/><path d="M303.039 176.343a4.163 4.163 0 0 1-4.051-3.225 4.163 4.163 0 0 1 3.119-4.992l54.437-12.563a4.162 4.162 0 1 1 1.87 8.11l-54.435 12.564c-.316.07-.63.106-.94.106" fill="#DB241F"/><path d="M379.55 257.038a4.16 4.16 0 0 1-3.884-2.67 4.157 4.157 0 0 1 2.39-5.376l54.436-20.939a4.161 4.161 0 0 1 2.988 7.767l-54.437 20.937c-.492.19-.995.28-1.492.28" fill="#DA1F1C"/><path d="M456.06 337.73a4.16 4.16 0 0 1-1.977-7.826l54.436-29.312a4.164 4.164 0 0 1 5.637 1.691 4.16 4.16 0 0 1-1.69 5.637l-54.437 29.313a4.145 4.145 0 0 1-1.969.497" fill="#D81C19"/><path d="M532.567 418.425a4.159 4.159 0 0 1-3.424-1.791 4.164 4.164 0 0 1 1.052-5.793l54.436-37.686a4.162 4.162 0 1 1 4.738 6.843l-54.438 37.688a4.14 4.14 0 0 1-2.364.739" fill="#D61917"/><path d="M609.072 499.12a4.16 4.16 0 0 1-2.69-7.337l54.437-46.063a4.155 4.155 0 0 1 5.864.487 4.161 4.161 0 0 1-.487 5.866l-54.438 46.06a4.133 4.133 0 0 1-2.686.987" fill="#D51413"/><path d="M685.577 579.814a4.16 4.16 0 0 1-2.942-7.104l54.437-54.437a4.16 4.16 0 1 1 5.885 5.884l-54.438 54.438a4.141 4.141 0 0 1-2.942 1.22" fill="#D31111"/><g transform="translate(837.527 828.123)"><mask id="v" fill="#fff"><use xlink:href="#u"/></mask><path d="M4.67 63.371a4.14 4.14 0 0 1-2.364-.738A4.166 4.166 0 0 1 1.25 56.84L38.939 2.402a4.166 4.166 0 0 1 5.79-1.053 4.164 4.164 0 0 1 1.053 5.793L8.094 61.58A4.159 4.159 0 0 1 4.67 63.37" fill="#EDA007" mask="url(#v)"/></g><path d="M761.504 814.987a4.16 4.16 0 0 1-3.175-6.85L804.39 753.7a4.161 4.161 0 0 1 6.355 5.377l-46.063 54.437a4.15 4.15 0 0 1-3.18 1.473" fill="#EEA208"/><path d="M680.81 738.48a4.16 4.16 0 0 1-2.942-7.104l54.438-54.437a4.16 4.16 0 1 1 5.885 5.885l-54.438 54.437a4.141 4.141 0 0 1-2.942 1.22" fill="#EFA309"/><g transform="translate(-1 2.08)"><mask id="x" fill="#fff"><use xlink:href="#w"/></mask><path d="M47.687 31.092c-.498 0-1.001-.092-1.492-.281L-8.243 9.873a4.159 4.159 0 0 1-2.39-5.377 4.159 4.159 0 0 1 5.376-2.39l54.438 20.94a4.158 4.158 0 0 1 2.39 5.376 4.16 4.16 0 0 1-3.884 2.67" fill="#F7B404" mask="url(#x)"/></g><path d="M123.198 105.49c-.31 0-.624-.036-.94-.107L67.82 92.82a4.163 4.163 0 0 1-3.119-4.992c.518-2.239 2.751-3.622 4.992-3.119l54.438 12.563a4.163 4.163 0 0 1 3.119 4.992 4.163 4.163 0 0 1-4.052 3.225" fill="#F6B205"/><path d="M199.705 177.808c-.106 0-.214-.004-.322-.012l-54.438-4.189a4.16 4.16 0 0 1-3.83-4.467 4.154 4.154 0 0 1 4.467-3.83l54.438 4.188a4.16 4.16 0 0 1-.315 8.31" fill="#F4B006"/><path d="M221.766 254.315a4.161 4.161 0 0 1-.314-8.31l54.438-4.189a4.162 4.162 0 0 1 .636 8.298l-54.437 4.188a4.217 4.217 0 0 1-.323.013" fill="#F4AE06"/><path d="M298.273 335.01a4.163 4.163 0 0 1-4.051-3.226 4.163 4.163 0 0 1 3.119-4.991l54.437-12.564c2.241-.503 4.476.88 4.992 3.12a4.163 4.163 0 0 1-3.119 4.991l-54.438 12.563c-.316.071-.63.107-.94.107" fill="#F3AC06"/><path d="M374.785 415.706a4.16 4.16 0 0 1-3.885-2.67 4.16 4.16 0 0 1 2.39-5.378l54.438-20.938a4.167 4.167 0 0 1 5.377 2.393 4.16 4.16 0 0 1-2.39 5.378l-54.438 20.936a4.18 4.18 0 0 1-1.492.28" fill="#F2AA07"/><path d="M451.295 496.399a4.16 4.16 0 0 1-1.977-7.826l54.438-29.313a4.158 4.158 0 0 1 5.636 1.692 4.16 4.16 0 0 1-1.691 5.636l-54.438 29.314a4.121 4.121 0 0 1-1.968.497" fill="#F1A907"/><path d="M527.801 577.092a4.159 4.159 0 0 1-3.425-1.792 4.164 4.164 0 0 1 1.053-5.793l54.438-37.686a4.162 4.162 0 0 1 4.736 6.843l-54.438 37.689a4.14 4.14 0 0 1-2.364.739" fill="#F1A708"/><path d="M604.306 657.786a4.16 4.16 0 0 1-2.69-7.337l54.437-46.062a4.158 4.158 0 0 1 5.866.487 4.163 4.163 0 0 1-.489 5.865l-54.438 46.06a4.133 4.133 0 0 1-2.686.987" fill="#F0A508"/><path d="M680.81 738.48a4.16 4.16 0 0 1-2.942-7.104l54.438-54.437a4.16 4.16 0 1 1 5.885 5.885l-54.438 54.437a4.141 4.141 0 0 1-2.942 1.22" fill="#EFA309"/><g transform="translate(673.15 834.365)"><mask id="z" fill="#fff"><use xlink:href="#y"/></mask><path d="M4.75 64.637a4.16 4.16 0 0 1-2.942-7.104L56.247 3.099a4.16 4.16 0 1 1 5.884 5.884L7.693 63.418a4.141 4.141 0 0 1-2.942 1.22" fill="#0D9158" mask="url(#z)"/></g><g transform="translate(-1 164.376)"><mask id="B" fill="#fff"><use xlink:href="#A"/></mask><path d="M44.776 29.318c-.497 0-1.001-.092-1.492-.281L-11.154 8.1A4.161 4.161 0 1 1-8.166.333L46.27 21.272a4.157 4.157 0 0 1 2.39 5.376 4.16 4.16 0 0 1-3.884 2.67" fill="#28A155" mask="url(#B)"/></g><path d="M120.288 266.01c-.31 0-.624-.035-.94-.105l-54.436-12.562a4.16 4.16 0 0 1 1.87-8.11l54.438 12.561a4.162 4.162 0 0 1-.932 8.217" fill="#259F55"/><path d="M196.795 338.33c-.107 0-.215-.004-.323-.013l-54.438-4.188a4.162 4.162 0 1 1 .64-8.298l54.435 4.188a4.16 4.16 0 0 1-.314 8.31" fill="#229D55"/><path d="M218.856 414.837a4.161 4.161 0 0 1-.314-8.31l54.436-4.19a4.146 4.146 0 0 1 4.47 3.831 4.162 4.162 0 0 1-3.831 4.468l-54.438 4.188a4.217 4.217 0 0 1-.323.013" fill="#1F9C56"/><path d="M295.363 495.531a4.163 4.163 0 0 1-.932-8.217l54.438-12.56a4.16 4.16 0 1 1 1.87 8.11l-54.435 12.561c-.317.07-.63.106-.94.106" fill="#1C9A56"/><path d="M371.875 576.228a4.16 4.16 0 0 1-3.885-2.67 4.157 4.157 0 0 1 2.391-5.376l54.436-20.938a4.16 4.16 0 1 1 2.988 7.767l-54.438 20.936c-.491.19-.995.28-1.492.28" fill="#199856"/><path d="M448.385 656.92a4.16 4.16 0 0 1-1.977-7.826l54.436-29.312a4.164 4.164 0 0 1 5.637 1.692 4.16 4.16 0 0 1-1.69 5.636l-54.438 29.313a4.145 4.145 0 0 1-1.968.498" fill="#169657"/><path d="M524.892 737.615a4.159 4.159 0 0 1-3.425-1.791 4.165 4.165 0 0 1 1.05-5.793l54.438-37.688a4.168 4.168 0 0 1 5.793 1.053 4.164 4.164 0 0 1-1.053 5.79l-54.438 37.69c-.724.5-1.548.74-2.365.74" fill="#139557"/><path d="M601.396 818.31a4.16 4.16 0 0 1-2.69-7.337l54.438-46.065a4.158 4.158 0 0 1 5.865.487 4.163 4.163 0 0 1-.489 5.866l-54.437 46.062a4.13 4.13 0 0 1-2.687.987" fill="#109358"/><g transform="translate(673.15 834.365)"><mask id="D" fill="#fff"><use xlink:href="#C"/></mask><path d="M4.75 64.637a4.16 4.16 0 0 1-2.942-7.104L56.247 3.099a4.16 4.16 0 1 1 5.884 5.884L7.693 63.418a4.141 4.141 0 0 1-2.942 1.22" fill="#0D9158" mask="url(#D)"/></g><g transform="translate(1484.628)"><mask id="F" fill="#fff"><use xlink:href="#E"/></mask><path d="M33.931 61.762a4.16 4.16 0 0 1-3.668-2.19L.95 5.136A4.16 4.16 0 0 1 2.642-.5 4.155 4.155 0 0 1 8.278 1.19l29.313 54.438a4.16 4.16 0 0 1-3.66 6.134" fill="#C10505" mask="url(#F)"/></g><path d="M1513.793 220.428a4.163 4.163 0 0 1-3.668-2.189l-29.31-54.437a4.161 4.161 0 1 1 7.325-3.945l29.313 54.437a4.16 4.16 0 0 1-3.66 6.134" fill="#E59402"/><path d="M1433.097 143.923a4.16 4.16 0 0 1-3.885-2.67l-20.938-54.437a4.157 4.157 0 0 1 2.39-5.376 4.157 4.157 0 0 1 5.377 2.388l20.938 54.438a4.157 4.157 0 0 1-2.39 5.377c-.491.189-.995.28-1.492.28" fill="#E69603"/><path d="M1352.397 67.415a4.163 4.163 0 0 1-4.051-3.225l-12.561-54.438a4.16 4.16 0 0 1 3.119-4.992c2.24-.505 4.473.88 4.99 3.12l12.563 54.437a4.163 4.163 0 0 1-4.06 5.098" fill="#E79704"/><path d="M1510.884 380.95a4.16 4.16 0 0 1-3.669-2.19l-29.313-54.437a4.162 4.162 0 0 1 7.328-3.945l29.314 54.438a4.16 4.16 0 0 1-3.66 6.134" fill="#048152"/><path d="M1430.186 304.445a4.16 4.16 0 0 1-3.885-2.67l-20.938-54.437a4.16 4.16 0 0 1 2.39-5.377 4.16 4.16 0 0 1 5.38 2.389l20.936 54.438a4.156 4.156 0 0 1-2.391 5.376c-.491.19-.995.281-1.492.281" fill="#058252"/><path d="M1349.487 227.936a4.163 4.163 0 0 1-4.05-3.225l-12.562-54.437a4.16 4.16 0 1 1 8.109-1.873l12.563 54.438a4.163 4.163 0 0 1-4.06 5.097" fill="#068453"/><path d="M1268.793 151.43a4.161 4.161 0 0 1-4.145-3.844l-4.188-54.437a4.162 4.162 0 0 1 3.83-4.468c2.297-.162 4.293 1.54 4.467 3.831l4.189 54.438a4.16 4.16 0 0 1-4.153 4.48" fill="#068654"/><path d="M1188.106 74.923a4.16 4.16 0 0 1-4.153-4.48l4.189-54.438a4.161 4.161 0 1 1 8.297.637l-4.188 54.438a4.161 4.161 0 0 1-4.145 3.843" fill="#068754"/></g></svg>