<?xml version="1.0" standalone="no"?>
<!DOCTYPE svg PUBLIC "-//W3C//DTD SVG 20010904//EN"
 "http://www.w3.org/TR/2001/REC-SVG-20010904/DTD/svg10.dtd">
<svg version="1.0" xmlns="http://www.w3.org/2000/svg"
 width="1200.000000pt" height="1200.000000pt" viewBox="0 0 1200.000000 1200.000000"
 preserveAspectRatio="xMidYMid meet">
<metadata>
Created by potrace 1.16, written by Peter Selinger 2001-2019
</metadata>
<g transform="translate(0.000000,1200.000000) scale(0.100000,-0.100000)"
fill="#000000" stroke="none">
<path d="M5550 11994 c-130 -8 -405 -43 -565 -70 -1061 -183 -2017 -628 -2860
-1330 -156 -130 -479 -445 -619 -604 -603 -684 -1033 -1464 -1279 -2320 -39
-136 -64 -231 -97 -375 -35 -152 -77 -412 -107 -650 -15 -127 -18 -225 -18
-645 0 -531 3 -583 61 -950 69 -435 182 -847 347 -1267 146 -370 361 -780 590
-1123 348 -520 812 -1018 1312 -1406 742 -576 1599 -967 2515 -1148 171 -34
219 -41 445 -71 202 -27 377 -35 725 -35 419 0 531 7 915 60 306 43 777 161
1110 281 1202 430 2263 1258 2972 2319 171 256 380 635 502 908 199 449 356
982 435 1482 58 367 61 419 61 950 0 531 -3 583 -61 950 -69 435 -182 847
-347 1267 -78 198 -106 258 -232 508 -305 600 -660 1083 -1156 1570 -649 638
-1424 1113 -2288 1404 -327 110 -750 210 -1061 251 -47 6 -137 18 -200 26 -87
12 -228 17 -580 19 -256 1 -490 1 -520 -1z m1670 -1919 c228 -32 586 -116 748
-177 61 -23 60 -20 37 -169 -28 -188 -150 -687 -174 -712 -5 -4 -59 6 -122 22
-220 59 -269 66 -479 65 -184 0 -200 -1 -283 -27 -113 -35 -189 -73 -268 -137
-252 -200 -374 -552 -381 -1100 -3 -184 0 -198 45 -248 51 -56 138 -61 754
-41 193 6 363 9 377 5 l26 -6 0 -405 0 -405 -22 0 c-195 -1 -847 -23 -887 -30
-65 -12 -114 -47 -143 -103 l-21 -42 6 -620 c18 -1718 38 -4057 35 -4060 -1
-1 -295 -4 -653 -6 l-650 -4 -6 1715 c-4 943 -11 1879 -17 2080 -18 600 -32
892 -44 939 -14 55 -72 116 -125 131 -23 6 -220 13 -510 17 l-473 6 0 147 c0
81 -3 275 -7 432 l-6 285 369 6 c203 4 386 12 407 18 21 5 53 24 73 41 62 54
66 73 75 293 11 273 26 441 55 630 99 644 344 1020 824 1260 236 118 453 178
790 219 82 10 540 -3 650 -19z"/>
</g>
</svg>
